<?xml version="1.0" encoding="UTF-8" standalone="no"?>
<!-- Created with Inkscape (http://www.inkscape.org/) -->

<svg
   version="1.1"
   id="svg7611"
   width="1024"
   height="1024"
   viewBox="0 0 1024 1024"
   sodipodi:docname="bat-flat.svg"
   inkscape:version="1.2.2 (b0a84865, 2022-12-01)"
   inkscape:export-filename="bat-flat.png"
   inkscape:export-xdpi="96"
   inkscape:export-ydpi="96"
   xmlns:inkscape="http://www.inkscape.org/namespaces/inkscape"
   xmlns:sodipodi="http://sodipodi.sourceforge.net/DTD/sodipodi-0.dtd"
   xmlns="http://www.w3.org/2000/svg"
   xmlns:svg="http://www.w3.org/2000/svg">
  <sodipodi:namedview
     id="namedview55"
     pagecolor="#ffffff"
     bordercolor="#000000"
     borderopacity="0.25"
     inkscape:showpageshadow="2"
     inkscape:pageopacity="0.0"
     inkscape:pagecheckerboard="0"
     inkscape:deskcolor="#d1d1d1"
     showgrid="false"
     inkscape:zoom="0.53473835"
     inkscape:cx="446.94756"
     inkscape:cy="503.9848"
     inkscape:window-width="1389"
     inkscape:window-height="787"
     inkscape:window-x="57"
     inkscape:window-y="73"
     inkscape:window-maximized="0"
     inkscape:current-layer="g7617" />
  <defs
     id="defs7615">
    <clipPath
       clipPathUnits="userSpaceOnUse"
       id="clipPath7625">
      <path
         d="M 0,512 H 512 V 0 H 0 Z"
         id="path7623" />
    </clipPath>
  </defs>
  <g
     id="g7617"
     transform="matrix(1.3333333,0,0,-1.3333333,-9.999846,634.25694)">
    <g
       id="g7619"
       transform="matrix(1.4462551,0,0,1.4462551,20.612777,-278.46242)">
      <g
         id="g7621"
         clip-path="url(#clipPath7625)">
        <g
           id="g7627"
           transform="translate(407.5312,296.8633)">
          <path
             d="m 0,0 c -1.334,-24.885 -31.802,-73.038 -44.843,-78.144 -12.558,1.669 -47.132,15.346 -56.016,20.029 l -12.096,-94.579 c 61.348,44.509 91.144,-20.919 97.419,-44.706 0.473,-1.791 2.808,-2.237 3.92,-0.755 41.025,54.619 85.688,-30.646 98.856,-61.057 0.877,-2.025 3.854,-1.683 4.235,0.491 C 106.95,-170.299 93.388,-43.226 3.231,1.866 1.787,2.589 0.086,1.613 0,0"
             style="display:inline;fill:#6e7093;fill-opacity:1;fill-rule:nonzero;stroke:none"
             id="path7629" />
          <path
             id="path10111"
             style="display:inline;fill:#4e5173;fill-opacity:1;fill-rule:nonzero;stroke:none"
             d="m -0.55658045,-186.73146 c 0.23506737,1.3646 0.46117285,2.73816 0.64013673,4.14844 0.22023147,1.73548 0.39923066,3.50079 0.54345705,5.28808 0.14422639,1.7873 0.25295201,3.59558 0.33105469,5.41553 0.0781027,1.81996 0.12608888,3.65238 0.14794918,5.48584 0.02186,1.83346 0.017176,3.66828 -0.00732,5.4961 -0.024501,1.82781 -0.075599,3.63996 -0.15527341,5.42578 -0.0796744,1.78581 -0.1879554,3.54554 -0.32226564,5.26611 -0.13431024,1.72057 -0.29499017,3.40258 -0.48339845,5.03467 -0.18840828,1.63208 -0.4040276,3.21402 -0.64599611,4.73437 -0.2419685,1.52036 -0.4831929,2.96312 -0.75439459,4.3418 -0.2712016,1.37869 -0.5729904,2.69387 -0.9360351,3.95654 -0.1815224,0.63134 -0.3785041,1.24881 -0.5947266,1.85596 -0.2162226,0.60715 -0.4517003,1.20388 -0.7104492,1.79004 -0.258749,0.58617 -0.5405079,1.16159 -0.8496094,1.72998 -0.3091016,0.56839 -0.6449266,1.12928 -1.0122071,1.68311 a 7.5,7.5 0 0 1 -2.9091798,2.56933 7.5,7.5 0 0 1 -3.8056648,0.77051 7.5,7.5 0 0 1 -3.679687,-1.23486 7.5,7.5 0 0 1 -2.569336,-2.90918 7.5,7.5 0 0 1 -0.770508,-3.8042 7.5,7.5 0 0 1 1.234863,-3.68115 c 0.08188,-0.12346 0.513302,-1.19504 1.026856,-2.87842 0.256777,-0.8417 0.534219,-1.83621 0.79834,-2.94141 0.26412,-1.1052 0.514825,-2.32059 0.719238,-3.60498 0.204413,-1.28438 0.390549,-2.65384 0.555176,-4.08838 0.164626,-1.43453 0.30817,-2.93478 0.429199,-4.48389 0.12103,-1.5491 0.219346,-3.14582 0.292969,-4.77392 0.07362,-1.6281 0.122614,-3.28698 0.145019,-4.9585 0.02241,-1.67152 0.01133,-3.36407 -0.03076,-5.05664 -0.04209,-1.69256 -0.115688,-3.38561 -0.216797,-5.05957 -0.101109,-1.67396 -0.230612,-3.32815 -0.385254,-4.94385 -0.154642,-1.61569 -0.334907,-3.19316 -0.537598,-4.71093 -0.202691,-1.51778 -0.427106,-2.97625 -0.672363,-4.35645 -0.245258,-1.3802 -0.511605,-2.6818 -0.793945,-3.88477 -0.22495,-0.95844 -0.468017,-1.8002 -0.713379,-2.62353 0.686481,-2.05685 1.266425,-3.97542 1.712402,-5.66602 0.473,-1.79099 2.807923,-2.23639 3.919922,-0.75439 3.6656838,4.88034 7.3608597,8.63722 11.05957075,11.42285 z" />
        </g>
        <g
           id="g7631"
           transform="translate(410.7627,298.7305)">
          <path
             d="m 0,0 c -1.444,0.722 -3.145,-0.254 -3.231,-1.866 -0.089,-1.646 -0.308,-3.395 -0.637,-5.225 59.925,-43.681 75.339,-139.641 69.846,-219.276 8.012,-13.022 14.292,-26.077 18.03,-34.712 0.877,-2.025 3.855,-1.682 4.235,0.492 C 103.719,-172.166 90.157,-45.093 0,0"
             style="fill:#4e5173;fill-opacity:1;fill-rule:nonzero;stroke:none"
             id="path7633" />
        </g>
        <g
           id="g7635"
           transform="translate(353.7358,220.7539)">
          <path
             d="M 0,0 C -15.544,4.397 -39.827,14.18 -47.064,17.994 L -59.16,-76.585 c 24.175,17.539 43.446,18.001 58.313,10.674 3.677,10.323 5.834,21.42 5.834,32.98 C 4.987,-20.644 3.217,-9.662 0,0"
             style="fill:#4e5173;fill-opacity:1;fill-rule:nonzero;stroke:none"
             id="path7637" />
        </g>
        <g
           id="g7639"
           transform="translate(465.3345,250.5986)" />
        <g
           id="g7643"
           transform="translate(395.9155,98.708)">
          <g
             id="path7645">
            <path
               style="color:#000000;fill:#4e5173;stroke-width:15;stroke-linecap:round;stroke-linejoin:round;stroke-miterlimit:10;-inkscape-stroke:none"
               d="M 0,0 C 7.705,16.53 6.204,59.577 0,68.932"
               id="path4004" />
          </g>
        </g>
        <g
           id="g7647"
           transform="translate(104.4688,296.8633)">
          <path
             d="m 0,0 c 1.334,-24.885 31.802,-73.038 44.843,-78.144 12.558,1.669 47.132,15.346 56.016,20.029 l 12.096,-94.579 c -61.348,44.509 -91.144,-20.919 -97.419,-44.706 -0.473,-1.791 -2.808,-2.237 -3.92,-0.755 -41.025,54.619 -85.688,-30.646 -98.856,-61.057 -0.877,-2.025 -3.854,-1.683 -4.235,0.491 -15.475,88.422 -1.913,215.495 88.244,260.587 C -1.787,2.589 -0.086,1.613 0,0"
             style="display:inline;fill:#6e7093;fill-opacity:1;fill-rule:nonzero;stroke:none"
             id="path7649" />
          <path
             id="path9830"
             style="display:inline;fill:#4e5173;fill-opacity:1;fill-rule:nonzero;stroke:none"
             d="m 17.248,-191.7339 c -0.245363,0.82333 -0.488429,1.66509 -0.713379,2.62353 -0.282341,1.20297 -0.547223,2.50457 -0.79248,3.88477 -0.245258,1.3802 -0.471137,2.83867 -0.673829,4.35645 -0.202691,1.51777 -0.382956,3.09524 -0.537597,4.71093 -0.154642,1.6157 -0.284145,3.26989 -0.385254,4.94385 -0.101109,1.67396 -0.173239,3.36701 -0.215332,5.05957 -0.04209,1.69257 -0.05317,3.38512 -0.03076,5.05664 0.02241,1.67152 0.0714,3.3304 0.14502,4.9585 0.07362,1.6281 0.171939,3.22482 0.292968,4.77392 0.12103,1.54911 0.264573,3.04936 0.4292,4.48389 0.164626,1.43454 0.349297,2.804 0.55371,4.08838 0.204414,1.28439 0.456583,2.49978 0.720704,3.60498 0.26412,1.1052 0.540097,2.09971 0.796875,2.94141 0.513554,1.68338 0.946445,2.75496 1.02832,2.87842 a 7.5,7.5 0 0 1 0.624023,1.14843 7.5,7.5 0 0 1 0.416016,1.23926 7.5,7.5 0 0 1 0.194824,1.29346 7.5,7.5 0 0 1 -0.03369,1.30664 7.5,7.5 0 0 1 -0.259277,1.28027 7.5,7.5 0 0 1 -0.479004,1.21729 7.5,7.5 0 0 1 -0.681153,1.11474 7.5,7.5 0 0 1 -0.865722,0.97998 7.5,7.5 0 0 1 -1.022461,0.81446 7.5,7.5 0 0 1 -3.679688,1.23486 7.5,7.5 0 0 1 -3.8041993,-0.77051 7.5,7.5 0 0 1 -2.9106446,-2.56933 c -0.3672805,-0.55383 -0.7031054,-1.11472 -1.012207,-1.68311 -0.3091016,-0.56839 -0.5908605,-1.14381 -0.8496094,-1.72998 -0.258749,-0.58616 -0.4942267,-1.18289 -0.7104493,-1.79004 -0.2162225,-0.60715 -0.4132042,-1.22462 -0.5947265,-1.85596 -0.3630448,-1.26267 -0.6648336,-2.57785 -0.9360352,-3.95654 -0.27120168,-1.37868 -0.51242607,-2.82144 -0.75439458,-4.3418 -0.2419685,-1.52035 -0.45612275,-3.10229 -0.64453126,-4.73437 -0.18840852,-1.63209 -0.35055287,-3.3141 -0.4848633,-5.03467 -0.13431042,-1.72057 -0.24112654,-3.4803 -0.32080078,-5.26611 -0.0796743,-1.78582 -0.13223828,-3.59797 -0.15673828,-5.42578 -0.024501,-1.82782 -0.02772,-3.66264 -0.00586,-5.4961 0.02186,-1.83346 0.068382,-3.66588 0.14648439,-5.48584 0.0781027,-1.81995 0.18682831,-3.62823 0.3310547,-5.41553 0.14422639,-1.78729 0.32469042,-3.5526 0.54492189,-5.28808 0.1789621,-1.41027 0.40360744,-2.78385 0.63867189,-4.14844 3.69884783,-2.78566 7.39375173,-6.54233 11.05957063,-11.42285 1.111998,-1.482 3.446922,-1.0366 3.919922,0.75439 0.445977,1.6906 1.025921,3.60917 1.712402,5.66602 z" />
        </g>
        <g
           id="g7651"
           transform="translate(158.2642,220.7539)">
          <path
             d="M 0,0 C 15.544,4.397 39.827,14.18 47.064,17.994 L 59.16,-76.585 c -24.175,17.539 -43.446,18.001 -58.313,10.674 -3.677,10.323 -5.834,21.42 -5.834,32.98 0,12.287 1.77,23.269 4.987,32.931"
             style="fill:#4e5173;fill-opacity:1;fill-rule:nonzero;stroke:none"
             id="path7653" />
        </g>
        <g
           id="g7655"
           transform="translate(46.665,250.5977)" />
        <g
           id="g7659"
           transform="translate(116.0845,98.708)" />
        <g
           id="g7663"
           transform="translate(334.7231,187.8232)">
          <path
             d="m 0,0 c 0,-54.996 -48.68,-99.578 -78.723,-99.578 -30.043,0 -78.723,44.582 -78.723,99.578 0,54.996 35.245,84.044 78.723,84.044 C -35.246,84.044 0,54.996 0,0"
             style="fill:#6e7093;fill-opacity:1;fill-rule:nonzero;stroke:none"
             id="path7665" />
        </g>
        <g
           id="g7667"
           transform="translate(331.6387,214.1523)">
          <path
             d="m 0,0 c -9.459,37.882 -39.73,57.715 -75.639,57.715 -31.585,0 -58.81,-15.345 -71.349,-44.817 21.352,-20.053 50.081,-32.342 81.685,-32.342 24.106,0 46.539,7.154 65.303,19.444"
             style="fill:#4e5173;fill-opacity:1;fill-rule:nonzero;stroke:none"
             id="path7669" />
        </g>
        <g
           id="g7671"
           transform="translate(334.7231,187.8232)" />
        <g
           id="g7675"
           transform="translate(377.2515,463.3184)">
          <path
             d="m 0,0 -8.192,11.533 c -0.427,0.602 -1.152,0.919 -1.884,0.825 L -24.107,10.565 C -44.201,7.998 -62.68,-1.876 -75.949,-16.9 c -13.97,5.736 -29.265,8.908 -45.302,8.908 -16.038,0 -31.332,-3.172 -45.303,-8.908 -13.269,15.024 -31.748,24.898 -51.842,27.465 l -14.031,1.793 c -0.732,0.094 -1.457,-0.223 -1.884,-0.825 L -242.503,0 c -18.511,-26.059 -18.028,-61.642 1.202,-88.543 1.606,-2.247 3.326,-4.398 5.137,-6.458 -3.032,-10.795 -4.588,-22.209 -4.426,-34.01 0.896,-65.486 55.25,-118.426 120.738,-117.675 65.27,0.75 117.951,53.895 117.951,119.343 0,11.209 -1.549,22.056 -4.438,32.342 1.811,2.06 3.531,4.211 5.137,6.458 C 18.028,-61.642 18.511,-26.059 0,0"
             style="fill:#6e7093;fill-opacity:1;fill-rule:nonzero;stroke:none"
             id="path7677" />
        </g>
        <g
           id="g7679"
           transform="translate(377.2515,463.3184)">
          <path
             d="m 0,0 -8.192,11.532 c -0.427,0.603 -1.152,0.92 -1.884,0.826 l -11.315,-1.445 0.293,-0.413 c 18.512,-26.059 18.029,-61.642 -1.201,-88.543 -1.607,-2.247 -3.326,-4.397 -5.138,-6.458 2.89,-10.285 4.438,-21.133 4.438,-32.342 0,-65.915 -53.435,-119.35 -119.35,-119.35 -14.898,0 -29.154,2.738 -42.304,7.724 18.719,-11.761 40.93,-18.476 64.728,-18.218 63.319,0.69 115.534,51.433 117.936,114.709 0.488,12.857 -1.064,25.28 -4.35,36.977 1.811,2.061 3.531,4.211 5.137,6.458 C 18.028,-61.642 18.511,-26.059 0,0"
             style="fill:#4e5173;fill-opacity:1;fill-rule:nonzero;stroke:none"
             id="path7681" />
        </g>
        <g
           id="g7683"
           transform="translate(339.4365,344.127)">
          <path
             d="m 0,0 c -1.197,3.248 -5.333,4.192 -7.799,1.763 -11.113,-10.954 -27.212,-17.198 -44.543,-15.725 -1.525,0.13 -3.031,0.316 -4.514,0.56 -3.347,0.547 -6.168,-2.55 -5.335,-5.837 3.402,-13.433 15.207,-23.78 29.939,-24.541 16.986,-0.88 31.978,11.738 34.011,28.626 C 2.4,-9.832 1.724,-4.678 0,0"
             style="fill:#fdeaaf;fill-opacity:1;fill-rule:nonzero;stroke:none"
             id="path7685" />
        </g>
        <g
           id="g7687"
           transform="translate(172.5635,344.127)">
          <path
             d="m 0,0 c 1.197,3.248 5.333,4.192 7.799,1.763 11.113,-10.954 27.212,-17.198 44.543,-15.725 1.525,0.13 3.031,0.316 4.514,0.56 3.347,0.547 6.168,-2.55 5.335,-5.837 C 58.789,-32.672 46.984,-43.019 32.252,-43.78 15.266,-44.66 0.274,-32.042 -1.759,-15.154 -2.4,-9.832 -1.724,-4.678 0,0"
             style="fill:#fdeaaf;fill-opacity:1;fill-rule:nonzero;stroke:none"
             id="path7689" />
        </g>
        <g
           id="g7691"
           transform="translate(339.4365,344.127)" />
        <g
           id="g7695"
           transform="translate(172.5635,344.127)" />
        <g
           id="g7699"
           transform="translate(157.7051,268.5088)" />
        <g
           id="g7703"
           transform="translate(187.4214,433.6611)">
          <path
             d="M 0,0 C -8.954,8.267 -20.203,13.354 -31.81,14.837 -42.408,-0.083 -43.788,-20.226 -34.58,-37.636 -25.887,-22.735 -14.06,-9.889 0,0"
             style="fill:#b78358;fill-opacity:1;fill-rule:nonzero;stroke:none"
             id="path7705" />
        </g>
        <g
           id="g7707"
           transform="translate(359.1582,396.0254)">
          <path
             d="M 0,0 C 9.208,17.41 7.828,37.553 -2.77,52.473 -14.377,50.989 -25.625,45.902 -34.58,37.636 -20.52,27.747 -8.693,14.9 0,0"
             style="fill:#b78358;fill-opacity:1;fill-rule:nonzero;stroke:none"
             id="path7709" />
        </g>
        <g
           id="g7711"
           transform="translate(187.4214,433.6611)" />
        <g
           id="g7715"
           transform="translate(359.1582,396.0254)" />
      </g>
    </g>
  </g>
</svg>
