<?xml version="1.0" encoding="UTF-8" standalone="no"?>
<!-- Created with Inkscape (http://www.inkscape.org/) -->

<svg
   width="30"
   height="30"
   viewBox="0 0 7.937499 7.937499"
   version="1.1"
   id="svg1"
   inkscape:version="1.3 (0e150ed6c4, 2023-07-21)"
   sodipodi:docname="icon_delta.svg"
   inkscape:export-filename="icon_sail.png"
   inkscape:export-xdpi="96"
   inkscape:export-ydpi="96"
   xml:space="preserve"
   xmlns:inkscape="http://www.inkscape.org/namespaces/inkscape"
   xmlns:sodipodi="http://sodipodi.sourceforge.net/DTD/sodipodi-0.dtd"
   xmlns:xlink="http://www.w3.org/1999/xlink"
   xmlns="http://www.w3.org/2000/svg"
   xmlns:svg="http://www.w3.org/2000/svg"><sodipodi:namedview
     id="namedview1"
     pagecolor="#ffffff"
     bordercolor="#111111"
     borderopacity="1"
     inkscape:showpageshadow="0"
     inkscape:pageopacity="0"
     inkscape:pagecheckerboard="1"
     inkscape:deskcolor="#d1d1d1"
     inkscape:document-units="px"
     inkscape:zoom="11.313709"
     inkscape:cx="-4.7287764"
     inkscape:cy="21.478368"
     inkscape:window-width="2560"
     inkscape:window-height="1009"
     inkscape:window-x="-8"
     inkscape:window-y="-8"
     inkscape:window-maximized="1"
     inkscape:current-layer="layer2"
     showguides="true"><sodipodi:guide
       position="3.9687495,3.9687495"
       orientation="-1,0"
       id="guide14"
       inkscape:locked="false"
       inkscape:label=""
       inkscape:color="rgb(0,134,229)" /></sodipodi:namedview><defs
     id="defs1"><linearGradient
       id="linearGradient5"
       inkscape:collect="always"><stop
         style="stop-color:#00ccff;stop-opacity:1"
         offset="0"
         id="stop5" /><stop
         style="stop-color:#55ddff;stop-opacity:1"
         offset="1"
         id="stop6" /></linearGradient><inkscape:path-effect
       effect="mirror_symmetry"
       start_point="3.9687495,2.4059535"
       end_point="3.9687495,5.3522801"
       center_point="3.9687495,3.8791168"
       id="path-effect4"
       is_visible="true"
       lpeversion="1.2"
       lpesatellites=""
       mode="free"
       discard_orig_path="false"
       fuse_paths="false"
       oposite_fuse="false"
       split_items="false"
       split_open="false"
       link_styles="false" /><inkscape:path-effect
       effect="mirror_symmetry"
       start_point="3.9687495,3.1655402"
       end_point="3.9687495,5.7381504"
       center_point="3.9687495,4.4518453"
       id="path-effect3"
       is_visible="true"
       lpeversion="1.2"
       lpesatellites=""
       mode="free"
       discard_orig_path="false"
       fuse_paths="false"
       oposite_fuse="false"
       split_items="false"
       split_open="false"
       link_styles="false" /><inkscape:path-effect
       effect="mirror_symmetry"
       start_point="3.9687495,2.6859264"
       end_point="3.9687495,5.3733546"
       center_point="3.9687495,4.0296405"
       id="path-effect7"
       is_visible="true"
       lpeversion="1.2"
       lpesatellites=""
       mode="free"
       discard_orig_path="false"
       fuse_paths="false"
       oposite_fuse="false"
       split_items="false"
       split_open="false"
       link_styles="false" /><inkscape:path-effect
       effect="mirror_symmetry"
       start_point="3.9687495,2.6859264"
       end_point="3.9687495,5.3733546"
       center_point="3.9687495,4.0296405"
       id="path-effect6"
       is_visible="true"
       lpeversion="1.2"
       lpesatellites=""
       mode="free"
       discard_orig_path="false"
       fuse_paths="false"
       oposite_fuse="false"
       split_items="false"
       split_open="false"
       link_styles="false" /><inkscape:path-effect
       effect="mirror_symmetry"
       start_point="3.9687495,2.6859264"
       end_point="3.9687495,5.3733546"
       center_point="3.9687495,4.0296405"
       id="path-effect2"
       is_visible="true"
       lpeversion="1.2"
       lpesatellites=""
       mode="free"
       discard_orig_path="false"
       fuse_paths="false"
       oposite_fuse="false"
       split_items="false"
       split_open="false"
       link_styles="false" /><linearGradient
       inkscape:collect="always"
       xlink:href="#linearGradient5"
       id="linearGradient6"
       x1="3.7750056"
       y1="4.0480709"
       x2="4.2646155"
       y2="4.0480709"
       gradientUnits="userSpaceOnUse"
       gradientTransform="matrix(1.0508236,0,0,1.0557183,-0.20170598,-0.21613779)" /></defs><g
     inkscape:groupmode="layer"
     id="layer2"
     inkscape:label="delta"><path
       id="path9"
       style="color:#000000;fill:#333333;stroke-width:1;stroke-linecap:round;-inkscape-stroke:none;paint-order:markers stroke fill"
       d="m 3.9687496,3.0029171 c -0.03683,0.0033 -0.081039,0.016787 -0.1353924,0.049093 L 0.40565994,5.1242343 C 0.292568,5.3925021 0.18955129,5.6692875 0.0981852,5.942789 c 0.0216039,0.1993193 0.12462502,0.2375399 0.289388,0.2930053 0.0834204,0.00293 0.1334576,-0.0113 0.2051554,-0.026872 C 0.73612422,6.1777783 0.92565572,6.1234683 1.1466999,6.060611 1.5887884,5.9348963 2.1538575,5.7746903 2.599841,5.707661 2.9138612,5.660465 3.1986785,5.619304 3.3879065,5.639965 c 0.189228,0.02066 0.2614071,0.051976 0.3364135,0.2309937 0.027211,0.063495 0.078004,0.1136353 0.1415934,0.140043 0.032806,0.013907 0.067929,0.020671 0.1028357,0.020671 z"
       sodipodi:nodetypes="cccscsssscccc" /><path
       id="path10"
       style="color:#000000;fill:url(#linearGradient6);stroke-width:1;stroke-linecap:round;-inkscape-stroke:none;paint-order:markers stroke fill"
       d="M 3.9687496,3.2799027 0.61805005,5.3051019 C 0.5332003,5.521552 0.44553553,5.7368876 0.36244809,5.9540342 0.54013662,5.9911419 0.70836841,5.8914367 0.88012385,5.8610427 1.0492013,5.7998266 1.2680805,5.8102381 1.3379261,5.6124545 1.5275929,5.3520045 1.7139085,5.0890816 1.9022092,4.8276117 c 0.153379,-0.184137 0.1074355,0.05038 0.155699,0.2350041 L 1.6360756,5.6508171 C 2.0084245,5.5502454 2.3854666,5.4639463 2.7683061,5.4151726 2.8558241,5.1869297 2.9479289,4.9592323 3.0472407,4.7365381 3.162808,4.550309 3.1826352,4.8195033 3.241738,4.9477477 L 3.0649282,5.378482 c 0.2842613,-0.028896 0.6300173,-0.015499 0.8173497,0.2357394 0.043372,0.075464 0.1082812,0.1944384 0.086471,0.035624 z"
       sodipodi:nodetypes="ccccccccccccccc" /><path
       id="path15"
       style="color:#000000;fill:#333333;stroke-width:1;stroke-linecap:round;-inkscape-stroke:none;paint-order:markers stroke fill"
       d="m 3.9687496,3.0029171 c 0.03683,0.0033 0.081038,0.016787 0.1353923,0.049093 L 7.5318391,5.1242343 C 7.6449311,5.3925021 7.7479478,5.6692875 7.8393139,5.942789 7.81771,6.1421083 7.7146888,6.1803289 7.5499259,6.2357943 7.4665055,6.2387292 7.4164683,6.2244944 7.3447705,6.2089225 7.2013749,6.1777789 7.0118434,6.1234687 6.7907992,6.0606112 6.3487107,5.9348965 5.7836416,5.7746905 5.3376581,5.7076612 5.0236379,5.6604653 4.7388206,5.6193047 4.5495926,5.6399651 4.3603646,5.6606255 4.2881855,5.6919413 4.2131791,5.8709588 4.185968,5.9344539 4.1351754,5.9845941 4.0715857,6.0110018 4.03878,6.0249088 4.0036562,6.0316728 3.96875,6.0316728 Z"
       sodipodi:nodetypes="cccscsssscccc" /><path
       id="path16"
       style="color:#000000;fill:#aaeeff;stroke-width:1;stroke-linecap:round;-inkscape-stroke:none;paint-order:markers stroke fill"
       d="M 3.9687496,3.2799027 7.3194491,5.3051019 C 7.4042988,5.521552 7.4919635,5.7368876 7.575051,5.9540342 7.3973625,5.9911419 7.2291307,5.8914367 7.0573753,5.8610427 6.8882978,5.7998266 6.6694186,5.8102381 6.599573,5.6124545 6.4099062,5.3520045 6.2235907,5.0890816 6.0352899,4.8276117 5.8819109,4.6434747 5.9278544,4.8779921 5.8795909,5.0626158 L 6.3014235,5.6508171 C 5.9290746,5.5502454 5.5520325,5.4639463 5.169193,5.4151726 5.081675,5.1869297 4.9895702,4.9592323 4.8902584,4.7365381 4.7746911,4.550309 4.7548639,4.8195033 4.6957611,4.9477477 L 4.8725709,5.378482 C 4.5883096,5.3495861 4.2425536,5.3629829 4.0552212,5.6142214 4.0118495,5.6896852 3.94694,5.8086598 3.96875,5.6498456 Z"
       sodipodi:nodetypes="ccccccccccccccc" /></g></svg>
