<?xml version="1.0" encoding="UTF-8" standalone="no"?>
<!-- Created with Inkscape (http://www.inkscape.org/) -->

<svg
   width="30"
   height="30"
   viewBox="0 0 7.937499 7.937499"
   version="1.1"
   id="svg1"
   inkscape:version="1.3 (0e150ed6c4, 2023-07-21)"
   sodipodi:docname="icon_help.svg"
   inkscape:export-filename="icon_help.png"
   inkscape:export-xdpi="96"
   inkscape:export-ydpi="96"
   xmlns:inkscape="http://www.inkscape.org/namespaces/inkscape"
   xmlns:sodipodi="http://sodipodi.sourceforge.net/DTD/sodipodi-0.dtd"
   xmlns="http://www.w3.org/2000/svg"
   xmlns:svg="http://www.w3.org/2000/svg">
  <sodipodi:namedview
     id="namedview1"
     pagecolor="#ffffff"
     bordercolor="#111111"
     borderopacity="1"
     inkscape:showpageshadow="0"
     inkscape:pageopacity="0"
     inkscape:pagecheckerboard="1"
     inkscape:deskcolor="#d1d1d1"
     inkscape:document-units="px"
     inkscape:zoom="5.9580249"
     inkscape:cx="-19.889141"
     inkscape:cy="39.442601"
     inkscape:window-width="2560"
     inkscape:window-height="1009"
     inkscape:window-x="-8"
     inkscape:window-y="-8"
     inkscape:window-maximized="1"
     inkscape:current-layer="text19"
     showguides="true">
    <sodipodi:guide
       position="3.9687495,3.9687495"
       orientation="-1,0"
       id="guide1"
       inkscape:locked="false"
       inkscape:label=""
       inkscape:color="rgb(0,134,229)" />
  </sodipodi:namedview>
  <defs
     id="defs1" />
  <g
     inkscape:label="safe zones"
     inkscape:groupmode="layer"
     id="layer1"
     sodipodi:insensitive="true"
     style="display:none">
    <circle
       style="fill:none;fill-opacity:0.436834;stroke:#000000;stroke-width:0.0264583;stroke-linecap:round;stroke-linejoin:round;stroke-dasharray:none"
       id="path1"
       cx="3.9687495"
       cy="3.9687495"
       r="3.9687495" />
    <rect
       style="fill:#808080;fill-opacity:0.444445;stroke:#000000;stroke-width:0.0264583;stroke-linecap:round;stroke-linejoin:round;stroke-dasharray:none"
       id="rect1"
       width="7.937499"
       height="1.3229165"
       x="0"
       y="0" />
    <rect
       style="fill:#808080;fill-opacity:0.444445;stroke:#000000;stroke-width:0.0264583;stroke-linecap:round;stroke-linejoin:round;stroke-dasharray:none"
       id="rect2"
       width="7.937499"
       height="1.3229165"
       x="0"
       y="6.6145825" />
    <rect
       style="fill:#808080;fill-opacity:0.444445;stroke:#000000;stroke-width:0.0264583;stroke-linecap:round;stroke-linejoin:round;stroke-dasharray:none"
       id="rect3"
       width="7.937499"
       height="1.3229165"
       x="-4.4408921e-16"
       y="-1.3229165"
       transform="rotate(90)" />
    <rect
       style="fill:#808080;fill-opacity:0.444445;stroke:#000000;stroke-width:0.0264583;stroke-linecap:round;stroke-linejoin:round;stroke-dasharray:none"
       id="rect4"
       width="7.937499"
       height="1.3229165"
       x="0"
       y="-7.937499"
       transform="rotate(90)" />
  </g>
  <g
     inkscape:groupmode="layer"
     id="layer2"
     inkscape:label="safe zones 1">
    <g
       id="text19"
       transform="scale(0.7710605,1.2969151)">
      <path
         style="color:#000000;-inkscape-font-specification:'Roboto Medium';fill:#ff0000;stroke-linecap:round;stroke-linejoin:round;-inkscape-stroke:none;paint-order:stroke markers fill"
         d="m 1.9453125,0.83203125 c -0.4395328,0 -0.8429544,0.11566253 -1.15820313,0.36523435 a 0.39691468,0.39691468 0 0 0 -0.001953,0 c -0.31118651,0.2480788 -0.5,0.6268056 -0.5,1.0214844 0,0.4589615 0.26796838,0.8778755 0.67382813,1.1328125 a 0.39691468,0.39691468 0 0 0 0,0.00195 c 0.0101467,0.00634 0.0267639,0.00941 0.0371094,0.015625 H 0.57226562 A 0.39691468,0.39691468 0 0 0 0.17578125,3.765625 c 0,0.2940439 0.084833,0.5806067 0.25195313,0.8164062 a 0.39691468,0.39691468 0 0 0 0.001953,0.00195 C 0.59473154,4.8137078 0.82503084,4.9912188 1.09375,5.1113281 a 0.39691468,0.39691468 0 0 0 0.00391,0.00195 c 0.2698093,0.1176612 0.5627579,0.1738282 0.8691407,0.1738282 0.4492204,0 0.8540284,-0.1020837 1.1679687,-0.34375 C 3.3568238,4.7720574 3.4136665,4.486884 3.4863281,4.21875 c 0.00349,0.00769 0.00228,0.017751 0.00586,0.025391 a 0.39691468,0.39691468 0 0 0 0.00195,0.00195 C 3.6461377,4.5660874 3.8738343,4.8326551 4.1640625,5.015625 a 0.39691468,0.39691468 0 0 0 0.00391,0.00195 c 0.2909133,0.1799896 0.6293209,0.2695313 0.9824219,0.2695313 0.3556463,0 0.6949013,-0.087818 0.984375,-0.2695313 a 0.39691468,0.39691468 0 0 0 0,-0.00195 c 0.2915403,-0.1837971 0.51945,-0.454215 0.6679688,-0.7773438 0.00133,-0.00292 6.332e-4,-0.00684 0.00195,-0.00977 0.041261,0.1177658 0.036994,0.2513886 0.109375,0.3535156 a 0.39691468,0.39691468 0 0 0 0.00195,0.00195 c 0.1650441,0.2297235 0.3953433,0.4072344 0.6640625,0.5273437 a 0.39691468,0.39691468 0 0 0 0.00391,0.00195 c 0.2698092,0.1176613 0.5627578,0.1738282 0.8691406,0.1738282 0.4492204,0 0.8540285,-0.1020837 1.1679688,-0.34375 0.3138156,-0.2420864 0.4980472,-0.6246922 0.4980472,-1.0234375 0,-0.2394549 -0.05482,-0.4733737 -0.1718754,-0.6757813 -0.1167694,-0.2037946 -0.2913205,-0.3696843 -0.5,-0.5 l -0.00391,-0.00195 C 9.4255164,2.7309768 9.3973372,2.7256392 9.3789063,2.7148438 H 9.71875 a 0.39691468,0.39691468 0 0 0 0.398438,-0.3964844 c 0,-0.2763613 -0.08115,-0.547512 -0.2324224,-0.7773438 C 9.7336307,1.309868 9.5171457,1.1270943 9.2636719,1.0078125 9.0105856,0.88871303 8.7284091,0.83203125 8.4316406,0.83203125 c -0.4395329,0 -0.8429544,0.11566249 -1.1582031,0.36523435 a 0.39691468,0.39691468 0 0 0 -0.00195,0 C 7.002601,1.4116202 6.8830367,1.7449021 6.8398437,2.0800781 6.8169366,2.0159473 6.8254784,1.936161 6.796875,1.875 v -0.00195 C 6.6468311,1.5515917 6.4165688,1.283788 6.125,1.1035156 5.8362464,0.92270676 5.4982484,0.83203125 5.1445312,0.83203125 c -0.3551148,0 -0.694071,0.0923729 -0.984375,0.27539065 C 3.8731074,1.2879762 3.6491297,1.556185 3.4980469,1.875 3.4601054,1.7638364 3.4634201,1.6397422 3.3984375,1.5410156 3.2473026,1.309868 3.0308176,1.1270943 2.7773438,1.0078125 2.5242575,0.88871303 2.2420809,0.83203125 1.9453125,0.83203125 Z m 0.7578125,0.75390625 0.00586,0.00391 c -0.00157,-0.00144 -0.00428,-5.251e-4 -0.00586,-0.00195 -4.622e-4,-4.127e-4 4.632e-4,-0.00154 0,-0.00195 z M 1.9414062,2.1210938 c 0.152372,0 0.2056497,0.031966 0.2304688,0.054687 a 0.39691468,0.39691468 0 0 0 0.00391,0.00391 C 2.2058148,2.206384 2.21875,2.2158898 2.21875,2.3183594 A 0.39691468,0.39691468 0 0 0 2.4140625,2.5117188 C 2.335307,2.4834094 2.2797286,2.4434074 2.1933594,2.4179688 h -0.00195 C 1.9378143,2.3416768 1.7702875,2.2605743 1.7167969,2.2226563 l -0.00195,-0.00195 c -0.024,-0.014815 -0.015625,0.00122 -0.015625,-0.00586 0,-0.058088 -0.00397,-0.034536 0.013672,-0.046875 0.022013,-0.01662 0.083906,-0.046875 0.2285156,-0.046875 z m 6.4863282,0 c 0.152372,0 0.2056497,0.031966 0.2304687,0.054687 a 0.39691468,0.39691468 0 0 0 0.00391,0.00391 c 0.030034,0.026696 0.042969,0.036202 0.042969,0.1386719 A 0.39691468,0.39691468 0 0 0 8.9003906,2.5117188 C 8.8216351,2.4834094 8.7660567,2.4434074 8.6796875,2.4179688 h -0.00195 C 8.4241425,2.3416768 8.2566157,2.2605743 8.203125,2.2226563 l -0.00195,-0.00195 c -0.024,-0.014815 -0.015625,0.00122 -0.015625,-0.00586 0,-0.058088 -0.00397,-0.034536 0.013672,-0.046875 0.022013,-0.01662 0.083906,-0.046875 0.2285156,-0.046875 z M 5.1445312,2.140625 c 0.1725568,0 0.2283686,0.02999 0.3105469,0.1464844 a 0.39691468,0.39691468 0 0 0 0,0.00195 C 5.53708,2.4040433 5.6074219,2.6222006 5.6074219,2.9667969 v 0.1855469 c 0,0.3524788 -0.07147,0.574538 -0.1503907,0.6855468 a 0.39691468,0.39691468 0 0 0 0,0.00195 C 5.3770016,3.9536638 5.3237349,3.984375 5.1503906,3.984375 4.9839151,3.984375 4.92481,3.9539324 4.8359375,3.8300781 4.7507335,3.709402 4.6816406,3.4917761 4.6816406,3.1523438 v -0.2011719 -0.00391 c 0.00355,-0.3290868 0.07298,-0.5403967 0.15625,-0.65625 C 4.9249274,2.1702872 4.9809791,2.140625 5.1445312,2.140625 Z m 1.7753907,0.3261719 c 0.086616,0.3402593 0.2085406,0.6857393 0.5253906,0.8847656 a 0.39691468,0.39691468 0 0 0 0,0.00195 c 0.010147,0.00634 0.026764,0.00941 0.037109,0.015625 H 7.0585937 A 0.39691468,0.39691468 0 0 0 6.9550781,3.4726563 C 6.9673308,3.3615087 7.0195313,3.2688736 7.0195312,3.1523438 V 2.9550781 a 0.39691468,0.39691468 0 0 0 0,-0.00195 C 7.0186992,2.7759084 6.9497234,2.6308665 6.9199219,2.4667969 Z M 3.34375,2.6035156 c -0.016562,0.1270141 -0.074219,0.2352153 -0.074219,0.3691407 v 0.080078 C 3.1721939,2.9449591 3.0897318,2.8245699 2.9609375,2.7441406 l -0.00391,-0.00195 C 2.9391883,2.7309768 2.911009,2.7256392 2.8925781,2.7148438 H 3.2324219 A 0.39691468,0.39691468 0 0 0 3.34375,2.6035156 Z M 1.3359375,3.5136719 c 0.1335829,0.057001 0.244166,0.1236537 0.4042969,0.171875 0.2661917,0.08016 0.4388462,0.16776 0.4667969,0.1894531 a 0.39691468,0.39691468 0 0 0 0.00195,0.00195 c 0.017346,0.013265 0.00977,-0.016069 0.00977,0.046875 0,0.042874 0.011692,0.017046 -0.015625,0.039063 -0.00698,0.00561 -0.074051,0.041016 -0.2363281,0.041016 -0.1908649,0 -0.2798685,-0.04068 -0.3203125,-0.074219 C 1.6039227,3.8943925 1.5878906,3.8804817 1.5878906,3.765625 A 0.39691468,0.39691468 0 0 0 1.3359375,3.5136719 Z m 6.4863281,0 c 0.1335829,0.057001 0.244166,0.1236537 0.4042969,0.171875 0.2661917,0.08016 0.4388462,0.16776 0.4667969,0.1894531 a 0.39691468,0.39691468 0 0 0 0.00195,0.00195 c 0.017346,0.013265 0.00977,-0.016069 0.00977,0.046875 0,0.042874 0.011692,0.017046 -0.015625,0.039063 -0.00698,0.00561 -0.074051,0.041016 -0.2363281,0.041016 -0.190865,0 -0.2798686,-0.04068 -0.3203125,-0.074219 C 8.0902508,3.8943925 8.0742187,3.8804817 8.0742188,3.765625 A 0.39691468,0.39691468 0 0 0 7.8222656,3.5136719 Z"
         id="path2" />
      <path
         style="color:#000000;-inkscape-font-specification:'Roboto Medium';fill:#f9f9f9;stroke-linecap:round;stroke-linejoin:round;-inkscape-stroke:none;paint-order:stroke markers fill"
         d="m 2.6162578,3.9241676 q 0,-0.2349755 -0.166441,-0.3622539 Q 2.2858235,3.4346353 1.8550351,3.3049093 1.4242467,3.1751832 1.16969,3.0160852 0.68260539,2.7101276 0.68260539,2.2181477 q 0,-0.4307884 0.35001551,-0.7098218 0.3524633,-0.2790334 0.9129777,-0.2790334 0.3720445,0 0.6633162,0.1370691 0.2912717,0.137069 0.4577126,0.3916258 0.166441,0.2521091 0.166441,0.5605144 H 2.6162578 q 0,-0.2790334 -0.1762316,-0.4356837 -0.173784,-0.159098 -0.4993229,-0.159098 -0.30351,0 -0.4723987,0.1297261 -0.1664409,0.129726 -0.1664409,0.3622538 0,0.1958129 0.1811269,0.3279866 0.1811269,0.1297261 0.5972294,0.2545568 0.4161024,0.1223831 0.6682115,0.281481 0.2521091,0.1566504 0.3695968,0.3622539 0.1174878,0.2031559 0.1174878,0.4772939 0,0.4454744 -0.3426726,0.7098218 -0.3402249,0.2618998 -0.925216,0.2618998 -0.3867304,0 -0.7122694,-0.1419644 Q 0.93226683,4.6046174 0.7511399,4.3525083 0.57246063,4.1003992 0.57246063,3.7650696 H 1.1917189 q 0,0.30351 0.2007082,0.4699509 0.2007083,0.166441 0.5752004,0.166441 0.3230913,0 0.484637,-0.129726 Q 2.6162578,4.1395618 2.6162578,3.9241676 Z M 6.6230793,3.1531543 q 0,0.5237995 -0.181127,0.9203206 -0.1811269,0.3940735 -0.5189042,0.60702 -0.3353296,0.2104989 -0.7734609,0.2104989 -0.4332361,0 -0.773461,-0.2104989 Q 4.038349,4.4675484 3.8523267,4.0759226 3.6687521,3.6842968 3.6663045,3.1727356 V 2.9720273 q 0,-0.5213518 0.1835746,-0.9203206 0.1860222,-0.3989688 0.5213518,-0.6094676 0.3377773,-0.2129466 0.773461,-0.2129466 0.4356837,0 0.7710133,0.2104989 0.3377772,0.2080512 0.5213518,0.6021247 0.1835746,0.3916258 0.1860223,0.9129776 z M 6.003821,2.967132 q 0,-0.592334 -0.2251849,-0.9080823 Q 5.555899,1.7433014 5.1446919,1.7433014 q -0.4014165,0 -0.629049,0.3157483 -0.2251848,0.3133006 -0.2300801,0.888501 v 0.2056036 q 0,0.5874387 0.2276325,0.9080823 0.2300801,0.3206436 0.6363919,0.3206436 0.4112071,0 0.6314966,-0.3133006 Q 6.003821,3.7552789 6.003821,3.1531543 Z m 3.0987391,0.9570356 q 0,-0.2349755 -0.1664409,-0.3622539 Q 8.7721259,3.4346353 8.3413375,3.3049093 7.9105491,3.1751832 7.6559924,3.0160852 7.1689078,2.7101276 7.1689078,2.2181477 q 0,-0.4307884 0.3500155,-0.7098218 0.3524632,-0.2790334 0.9129777,-0.2790334 0.3720445,0 0.6633162,0.1370691 0.2912717,0.137069 0.4577126,0.3916258 0.166441,0.2521091 0.166441,0.5605144 H 9.1025601 q 0,-0.2790334 -0.1762316,-0.4356837 -0.1737839,-0.159098 -0.4993229,-0.159098 -0.30351,0 -0.4723986,0.1297261 -0.1664409,0.129726 -0.1664409,0.3622538 0,0.1958129 0.1811269,0.3279866 0.1811269,0.1297261 0.5972293,0.2545568 0.4161024,0.1223831 0.6682116,0.281481 0.2521091,0.1566504 0.3695968,0.3622539 0.1174877,0.2031559 0.1174877,0.4772939 0,0.4454744 -0.3426725,0.7098218 -0.3402249,0.2618998 -0.925216,0.2618998 -0.3867305,0 -0.7122694,-0.1419644 Q 7.4185692,4.6046174 7.2374423,4.3525083 7.058763,4.1003992 7.058763,3.7650696 h 0.6192583 q 0,0.30351 0.2007082,0.4699509 0.2007082,0.166441 0.5752004,0.166441 0.3230913,0 0.4846369,-0.129726 0.1639933,-0.1321737 0.1639933,-0.3475679 z"
         id="path3" />
    </g>
  </g>
</svg>
