<?xml version="1.0" encoding="UTF-8" standalone="no"?>
<!-- Created with Inkscape (http://www.inkscape.org/) -->

<svg
   width="30"
   height="30"
   viewBox="0 0 7.937499 7.937499"
   version="1.1"
   id="svg1"
   inkscape:version="1.3 (0e150ed6c4, 2023-07-21)"
   sodipodi:docname="icon_walk.svg"
   xml:space="preserve"
   inkscape:export-filename="icon_walk.png"
   inkscape:export-xdpi="96"
   inkscape:export-ydpi="96"
   xmlns:inkscape="http://www.inkscape.org/namespaces/inkscape"
   xmlns:sodipodi="http://sodipodi.sourceforge.net/DTD/sodipodi-0.dtd"
   xmlns="http://www.w3.org/2000/svg"
   xmlns:svg="http://www.w3.org/2000/svg"><sodipodi:namedview
     id="namedview1"
     pagecolor="#ffffff"
     bordercolor="#111111"
     borderopacity="1"
     inkscape:showpageshadow="0"
     inkscape:pageopacity="0"
     inkscape:pagecheckerboard="1"
     inkscape:deskcolor="#d1d1d1"
     inkscape:document-units="px"
     inkscape:zoom="11.91605"
     inkscape:cx="8.0983215"
     inkscape:cy="11.66494"
     inkscape:window-width="2560"
     inkscape:window-height="1009"
     inkscape:window-x="-8"
     inkscape:window-y="-8"
     inkscape:window-maximized="1"
     inkscape:current-layer="path6" /><defs
     id="defs1" /><g
     inkscape:label="safe zones"
     inkscape:groupmode="layer"
     id="layer1"
     style="display:none"><circle
       style="fill:none;fill-opacity:0.436834;stroke:#000000;stroke-width:0.0264583;stroke-linecap:round;stroke-linejoin:round;stroke-dasharray:none"
       id="path1"
       cx="3.9687495"
       cy="3.9687495"
       r="3.9687495" /><rect
       style="fill:#808080;fill-opacity:0.444445;stroke:#000000;stroke-width:0.0264583;stroke-linecap:round;stroke-linejoin:round;stroke-dasharray:none"
       id="rect1"
       width="7.937499"
       height="1.3229165"
       x="0"
       y="0" /><rect
       style="fill:#808080;fill-opacity:0.444445;stroke:#000000;stroke-width:0.0264583;stroke-linecap:round;stroke-linejoin:round;stroke-dasharray:none"
       id="rect2"
       width="7.937499"
       height="1.3229165"
       x="0"
       y="6.6145825" /><rect
       style="fill:#808080;fill-opacity:0.444445;stroke:#000000;stroke-width:0.0264583;stroke-linecap:round;stroke-linejoin:round;stroke-dasharray:none"
       id="rect3"
       width="7.937499"
       height="1.3229165"
       x="-4.4408921e-16"
       y="-1.3229165"
       transform="rotate(90)" /><rect
       style="fill:#808080;fill-opacity:0.444445;stroke:#000000;stroke-width:0.0264583;stroke-linecap:round;stroke-linejoin:round;stroke-dasharray:none"
       id="rect4"
       width="7.937499"
       height="1.3229165"
       x="0"
       y="-7.937499"
       transform="rotate(90)" /></g><g
     inkscape:groupmode="layer"
     id="layer2"
     inkscape:label="safe zones 1"><g
       id="g4"
       style="stroke:#333333;stroke-opacity:1;fill:#ffffff;fill-opacity:1;stroke-width:0.5291666;stroke-dasharray:none"><g
         id="g1"
         transform="matrix(-1,0,0,1,7.6272083,0)"><g
           id="path6"><path
             id="path10"
             style="color:#000000;fill:#333333;stroke:none;stroke-linecap:round;-inkscape-stroke:none;paint-order:stroke fill markers"
             d="m 3.7618117,0.40824376 c 0.4882245,-10e-9 0.8913121,0.38675661 0.9213906,0.86816394 C 4.8767957,1.1257421 5.1283742,1.0144656 5.4392284,1.0138915 5.6391142,1.0135223 5.8205441,1.1039605 5.9549592,1.2267983 6.0893742,1.3496362 6.1900331,1.5034777 6.2717357,1.6737994 6.4351406,2.0144431 6.5250636,2.423396 6.5606069,2.7987952 6.6691161,3.9448443 6.251498,4.6584758 5.6836579,4.9082269 5.3244299,5.0662251 4.9184886,5.0312885 4.6124056,4.8394973 L 4.6408277,5.2322381 5.1229687,6.7107007 3.8968621,7.0547668 3.5068038,5.4585501 2.8786615,6.9845857 2.1365881,6.7499747 1.8926753,6.6719433 2.4337275,4.7325271 2.9628941,4.1816564 1.7577999,3.9258581 2.0880122,2.8670081 2.5293289,2.9843136 3.1442784,2.0205482 C 2.9564851,1.8505886 2.8378372,1.6048437 2.8378372,1.3337685 c 0,-0.50782109 0.4163957,-0.92552474 0.9239745,-0.92552474 z m -0.6640421,3.61734984 -0.039274,0.056327 0.039274,-0.040824 z"
             sodipodi:nodetypes="scsssssccccccccccccccsscccc" /><path
             style="color:#000000;fill:#c83737;stroke:none;stroke-linecap:round;-inkscape-stroke:none;paint-order:stroke fill markers"
             d="M 4.2784138,3.8962891 4.3797188,5.2842938 4.7852945,6.5285728 4.0993846,6.7291237 3.7660102,5.4845194 3.5396359,4.3152325 Z"
             id="path11"
             sodipodi:nodetypes="ccccccc" /></g><g
           id="path7"><path
             style="color:#000000;fill:#c83737;stroke:none;stroke-linecap:round;-inkscape-stroke:none;paint-order:stroke fill markers"
             d="M 4.4217089,1.333398 A 0.65934712,0.66138005 0 0 1 3.7623618,1.994778 0.65934712,0.66138005 0 0 1 3.1030146,1.333398 0.65934712,0.66138005 0 0 1 3.7623618,0.67201793 0.65934712,0.66138005 0 0 1 4.4217089,1.333398 Z"
             id="path9" /></g><g
           id="path5"><path
             style="color:#000000;fill:#c83737;stroke:none;stroke-linecap:round;-inkscape-stroke:none;paint-order:stroke fill markers"
             d="M 2.2165698,6.4972894 2.725182,6.6579692 3.3289314,5.1641284 4.2949308,4.1480478 4.3016389,3.0377608 4.1819257,2.2350319 3.3100908,2.2515011 2.6475395,3.2912191 2.2643146,3.1880429 2.0966064,3.7263638 2.8689143,3.8901014 3.362473,3.17907 V 4.1480478 L 2.6715153,4.8680521 Z"
             id="path4" /></g><g
           id="path2"><path
             style="color:#000000;fill:#c83737;stroke:none;stroke-linecap:round;-inkscape-stroke:none;paint-order:markers stroke fill"
             d="m 4.3688477,2.2556589 c 0,0 0.2230826,-0.9750619 1.0717526,-0.9766293 0.5012296,-9.257e-4 0.7912443,0.8462395 0.8573816,1.544765 0.2037694,2.1521657 -1.5142746,2.2828293 -1.8414493,1.4348968 z"
             id="path13" /></g></g></g></g></svg>
