<?xml version="1.0" encoding="UTF-8" standalone="no"?>
<!-- Created with Inkscape (http://www.inkscape.org/) -->

<svg
   width="30"
   height="30"
   viewBox="0 0 7.937499 7.937499"
   version="1.1"
   id="svg1"
   inkscape:version="1.3 (0e150ed6c4, 2023-07-21)"
   sodipodi:docname="icon_drive.svg"
   xml:space="preserve"
   inkscape:export-filename="icon_drive.png"
   inkscape:export-xdpi="96"
   inkscape:export-ydpi="96"
   xmlns:inkscape="http://www.inkscape.org/namespaces/inkscape"
   xmlns:sodipodi="http://sodipodi.sourceforge.net/DTD/sodipodi-0.dtd"
   xmlns="http://www.w3.org/2000/svg"
   xmlns:svg="http://www.w3.org/2000/svg"><sodipodi:namedview
     id="namedview1"
     pagecolor="#ffffff"
     bordercolor="#111111"
     borderopacity="1"
     inkscape:showpageshadow="0"
     inkscape:pageopacity="0"
     inkscape:pagecheckerboard="1"
     inkscape:deskcolor="#d1d1d1"
     inkscape:document-units="px"
     inkscape:zoom="11.313708"
     inkscape:cx="-6.0546018"
     inkscape:cy="25.102291"
     inkscape:window-width="2560"
     inkscape:window-height="1009"
     inkscape:window-x="-8"
     inkscape:window-y="-8"
     inkscape:window-maximized="1"
     inkscape:current-layer="layer2"
     showguides="false" /><defs
     id="defs1"><inkscape:path-effect
       effect="fillet_chamfer"
       id="path-effect6"
       is_visible="true"
       lpeversion="1"
       nodesatellites_param="F,0,0,1,0,0.3,0,1 @ F,0,0,1,0,0.3,0,1 @ F,0,0,1,0,0.3,0,1 @ F,0,0,1,0,0.3,0,1 @ F,0,0,1,0,0.3,0,1 @ F,0,0,1,0,0.3,0,1 @ F,0,0,1,0,0.3,0,1 @ F,0,0,1,0,0.3,0,1"
       radius="0.3"
       unit="px"
       method="auto"
       mode="F"
       chamfer_steps="1"
       flexible="false"
       use_knot_distance="true"
       apply_no_radius="true"
       apply_with_radius="true"
       only_selected="false"
       hide_knots="false" /></defs><g
     inkscape:groupmode="layer"
     id="layer2"
     inkscape:label="drive"><path
       style="color:#000000;fill:#333333;-inkscape-stroke:none;paint-order:stroke markers fill"
       d="m 4.0878906,1.5449219 c -0.3801722,0 -0.6972656,0.3151403 -0.6972656,0.6953125 V 2.8300781 H 1.3984375 c -0.3801722,0 -0.6953125,0.3170934 -0.6953125,0.6972657 v 0.9550781 c 0,0.3801722 0.3151403,0.6972656 0.6953125,0.6972656 h 5.2363281 c 0.3801722,0 0.6953125,-0.3170934 0.6953125,-0.6972656 V 3.5273438 c 0,-0.3801723 -0.3151403,-0.6972657 -0.6953125,-0.6972657 H 6.2988281 c -0.030643,0 -0.057212,-0.015267 -0.070312,-0.042969 L 5.8769531,2.0429688 C 5.7334256,1.7394808 5.4255595,1.5449219 5.0898437,1.5449219 Z"
       id="path2"
       sodipodi:nodetypes="sscsssssssssccss" /><path
       style="color:#000000;fill:#5fd38d;-inkscape-stroke:none;paint-order:stroke markers fill"
       d="m 3.7883887,2.2410474 v 0.6861454 a 0.3,0.3 0 0 1 -0.3,0.3 h -2.089272 a 0.3,0.3 0 0 0 -0.3,0.3 v 0.9554604 a 0.3,0.3 0 0 0 0.3,0.3 h 5.2349678 a 0.3,0.3 0 0 0 0.3,-0.3 V 3.5271928 a 0.3,0.3 0 0 0 -0.3,-0.3 H 6.2987621 A 0.47373543,0.47373543 0 0 1 5.870504,2.955992 L 5.5187678,2.2122482 A 0.47373543,0.47373543 0 0 0 5.0905097,1.9410474 h -1.002121 a 0.3,0.3 0 0 0 -0.3,0.3 z"
       id="path3" /><path
       style="color:#000000;fill:#333333;stroke:none;-inkscape-stroke:none;paint-order:stroke markers fill"
       d="m 2.3025391,4.1757812 c -0.5825862,0 -1.1428083,0.4799139 -1.2379266,1.0625 -0.0951182,0.5825862 0.3080748,1.0644532 0.890661,1.0644532 0.5825861,0 1.141174,-0.481867 1.2362922,-1.0644532 0.095118,-0.5825861 -0.3064405,-1.0625 -0.8890266,-1.0625 z"
       id="path4"
       sodipodi:nodetypes="sssss" /><path
       id="path7"
       style="color:#000000;fill:#5fd38d;stroke:none;-inkscape-stroke:none;paint-order:stroke markers fill"
       d="M 2.2370082,4.5718134 A 0.6143108,0.72313015 47.333482 0 0 1.4615429,5.2384393 0.6143108,0.72313015 47.333482 0 0 2.0193295,5.9050652 0.6143108,0.72313015 47.333482 0 0 2.7947947,5.2384393 0.6143108,0.72313015 47.333482 0 0 2.2370082,4.5718134 Z M 2.1701859,4.9810907 A 0.23710243,0.27910289 47.333482 0 1 2.3855174,5.2384393 0.23710243,0.27910289 47.333482 0 1 2.0861518,5.4957879 0.23710243,0.27910289 47.333482 0 1 1.8708202,5.2384393 0.23710243,0.27910289 47.333482 0 1 2.1701859,4.9810907 Z" /><path
       style="color:#000000;fill:#333333;stroke:none;-inkscape-stroke:none;paint-order:stroke markers fill"
       d="m 6.1594795,4.1757812 c -0.5825862,0 -1.2211633,0.4799139 -1.4113999,1.0625 -0.1902365,0.5825862 0.1342825,1.0644532 0.7168687,1.0644532 0.5825861,0 1.219848,-0.481867 1.4100845,-1.0644532 0.1902366,-0.5825861 -0.1329672,-1.0625 -0.7155533,-1.0625 z"
       id="path1"
       sodipodi:nodetypes="sssss" /><path
       id="path6"
       style="color:#000000;fill:#5fd38d;stroke:none;-inkscape-stroke:none;paint-order:stroke markers fill"
       d="M 6.0292888,4.5718134 A 0.56650895,0.78414765 49.636405 0 0 5.1449842,5.2384393 0.56650895,0.78414765 49.636405 0 0 5.5939314,5.9050652 0.56650895,0.78414765 49.636405 0 0 6.478236,5.2384393 0.56650895,0.78414765 49.636405 0 0 6.0292888,4.5718134 Z M 5.8956442,4.9810907 A 0.21865259,0.3026535 49.636405 0 1 6.0689587,5.2384393 0.21865259,0.3026535 49.636405 0 1 5.727576,5.4957879 0.21865259,0.3026535 49.636405 0 1 5.5542615,5.2384393 0.21865259,0.3026535 49.636405 0 1 5.8956442,4.9810907 Z" /></g></svg>
