<?xml version="1.0" encoding="UTF-8" standalone="no"?>
<!-- Created with Inkscape (http://www.inkscape.org/) -->

<svg
   width="30"
   height="30"
   viewBox="0 0 7.937499 7.937499"
   version="1.1"
   id="svg1"
   inkscape:version="1.3 (0e150ed6c4, 2023-07-21)"
   sodipodi:docname="icon_drive.svg"
   xml:space="preserve"
   inkscape:export-filename="icon_drive.png"
   inkscape:export-xdpi="96"
   inkscape:export-ydpi="96"
   xmlns:inkscape="http://www.inkscape.org/namespaces/inkscape"
   xmlns:sodipodi="http://sodipodi.sourceforge.net/DTD/sodipodi-0.dtd"
   xmlns:xlink="http://www.w3.org/1999/xlink"
   xmlns="http://www.w3.org/2000/svg"
   xmlns:svg="http://www.w3.org/2000/svg"><sodipodi:namedview
     id="namedview1"
     pagecolor="#ffffff"
     bordercolor="#111111"
     borderopacity="1"
     inkscape:showpageshadow="0"
     inkscape:pageopacity="0"
     inkscape:pagecheckerboard="1"
     inkscape:deskcolor="#d1d1d1"
     inkscape:document-units="px"
     inkscape:zoom="1"
     inkscape:cx="-295"
     inkscape:cy="133"
     inkscape:window-width="2560"
     inkscape:window-height="1009"
     inkscape:window-x="-8"
     inkscape:window-y="-8"
     inkscape:window-maximized="1"
     inkscape:current-layer="layer2"
     showguides="false" /><defs
     id="defs1"><inkscape:path-effect
       effect="fillet_chamfer"
       id="path-effect6"
       is_visible="true"
       lpeversion="1"
       nodesatellites_param="F,0,0,1,0,0.3,0,1 @ F,0,0,1,0,0.3,0,1 @ F,0,0,1,0,0.3,0,1 @ F,0,0,1,0,0.3,0,1 @ F,0,0,1,0,0.3,0,1 @ F,0,0,1,0,0.3,0,1 @ F,0,0,1,0,0.3,0,1 @ F,0,0,1,0,0.3,0,1"
       radius="0.3"
       unit="px"
       method="auto"
       mode="F"
       chamfer_steps="1"
       flexible="false"
       use_knot_distance="true"
       apply_no_radius="true"
       apply_with_radius="true"
       only_selected="false"
       hide_knots="false" /></defs><g
     inkscape:label="safe zones"
     inkscape:groupmode="layer"
     id="layer1"
     style="display:none"><circle
       style="fill:none;fill-opacity:0.436834;stroke:#000000;stroke-width:0.0264583;stroke-linecap:round;stroke-linejoin:round;stroke-dasharray:none"
       id="path1"
       cx="3.9687495"
       cy="3.9687495"
       r="3.9687495" /><rect
       style="fill:#808080;fill-opacity:0.444445;stroke:#000000;stroke-width:0.0264583;stroke-linecap:round;stroke-linejoin:round;stroke-dasharray:none"
       id="rect1"
       width="7.937499"
       height="1.3229165"
       x="0"
       y="0" /><rect
       style="fill:#808080;fill-opacity:0.444445;stroke:#000000;stroke-width:0.0264583;stroke-linecap:round;stroke-linejoin:round;stroke-dasharray:none"
       id="rect2"
       width="7.937499"
       height="1.3229165"
       x="0"
       y="6.6145825" /><rect
       style="fill:#808080;fill-opacity:0.444445;stroke:#000000;stroke-width:0.0264583;stroke-linecap:round;stroke-linejoin:round;stroke-dasharray:none"
       id="rect3"
       width="7.937499"
       height="1.3229165"
       x="-4.4408921e-16"
       y="-1.3229165"
       transform="rotate(90)" /><rect
       style="fill:#808080;fill-opacity:0.444445;stroke:#000000;stroke-width:0.0264583;stroke-linecap:round;stroke-linejoin:round;stroke-dasharray:none"
       id="rect4"
       width="7.937499"
       height="1.3229165"
       x="0"
       y="-7.937499"
       transform="rotate(90)" /></g><g
     inkscape:groupmode="layer"
     id="layer2"
     inkscape:label="icone"><g
       id="rect5"><path
         style="color:#000000;fill:#333333;-inkscape-stroke:none;paint-order:stroke markers fill"
         d="m 4.0878906,1.5449219 c -0.3801722,0 -0.6972656,0.3151403 -0.6972656,0.6953125 V 2.8300781 H 1.3984375 c -0.3801722,0 -0.6953125,0.3170934 -0.6953125,0.6972657 v 0.9550781 c 0,0.3801722 0.3151403,0.6972656 0.6953125,0.6972656 h 5.2363281 c 0.3801722,0 0.6953125,-0.3170934 0.6953125,-0.6972656 V 3.5273438 c 0,-0.3801723 -0.3151403,-0.6972657 -0.6953125,-0.6972657 H 6.2988281 c -0.030643,0 -0.057212,-0.015267 -0.070312,-0.042969 L 5.8769531,2.0429688 C 5.7334256,1.7394808 5.4255595,1.5449219 5.0898437,1.5449219 Z"
         id="path2"
         sodipodi:nodetypes="sscsssssssssccss" /><path
         style="color:#000000;fill:#5fd38d;-inkscape-stroke:none;paint-order:stroke markers fill"
         d="m 3.7883887,2.2410474 v 0.6861454 a 0.3,0.3 135 0 1 -0.3,0.3 h -2.089272 a 0.3,0.3 135 0 0 -0.3,0.3 v 0.9554604 a 0.3,0.3 45 0 0 0.3,0.3 h 5.2349678 a 0.3,0.3 135 0 0 0.3,-0.3 V 3.5271928 a 0.3,0.3 45 0 0 -0.3,-0.3 H 6.2987621 A 0.47373543,0.47373543 32.344643 0 1 5.870504,2.955992 L 5.5187678,2.2122482 A 0.47373543,0.47373543 32.344643 0 0 5.0905097,1.9410474 h -1.002121 a 0.3,0.3 135 0 0 -0.3,0.3 z"
         id="path3" /></g><g
       id="g6"
       style="stroke:#e6e6e6"
       transform="matrix(1,0,-0.16326903,1,0.85540853,0)"><g
         id="path5"><path
           style="color:#000000;fill:#333333;stroke:none;-inkscape-stroke:none;paint-order:stroke markers fill"
           d="m 2.1289063,4.1757812 c -0.5825862,0 -1.0644532,0.4799139 -1.0644532,1.0625 0,0.5825862 0.481867,1.0644532 1.0644532,1.0644532 0.5825861,0 1.0625,-0.481867 1.0625,-1.0644532 0,-0.5825861 -0.4799139,-1.0625 -1.0625,-1.0625 z"
           id="path4"
           sodipodi:nodetypes="sssss" /><path
           id="path7"
           style="color:#000000;fill:#5fd38d;stroke:none;-inkscape-stroke:none;paint-order:stroke markers fill"
           d="M 2.1280352,4.5718134 A 0.66650331,0.66650331 0 0 0 1.4614093,5.2384393 0.66650331,0.66650331 0 0 0 2.1280352,5.9050652 0.66650331,0.66650331 0 0 0 2.7946611,5.2384393 0.66650331,0.66650331 0 0 0 2.1280352,4.5718134 Z m 0,0.4092773 A 0.25724691,0.25724691 0 0 1 2.3853838,5.2384393 0.25724691,0.25724691 0 0 1 2.1280352,5.4957879 0.25724691,0.25724691 0 0 1 1.8706866,5.2384393 0.25724691,0.25724691 0 0 1 2.1280352,4.9810907 Z" /></g></g><use
       x="0"
       y="0"
       xlink:href="#g6"
       id="use8"
       transform="translate(3.6833077)" /></g></svg>
