<?xml version="1.0" encoding="UTF-8" standalone="no"?>
<!-- Created with Inkscape (http://www.inkscape.org/) -->

<svg
   width="30"
   height="30"
   viewBox="0 0 7.937499 7.937499"
   version="1.1"
   id="svg1"
   inkscape:version="1.3 (0e150ed6c4, 2023-07-21)"
   sodipodi:docname="icon_fly.svg"
   inkscape:export-filename="icon_fly.png"
   inkscape:export-xdpi="96"
   inkscape:export-ydpi="96"
   xml:space="preserve"
   xmlns:inkscape="http://www.inkscape.org/namespaces/inkscape"
   xmlns:sodipodi="http://sodipodi.sourceforge.net/DTD/sodipodi-0.dtd"
   xmlns:xlink="http://www.w3.org/1999/xlink"
   xmlns="http://www.w3.org/2000/svg"
   xmlns:svg="http://www.w3.org/2000/svg"><sodipodi:namedview
     id="namedview1"
     pagecolor="#ffffff"
     bordercolor="#111111"
     borderopacity="1"
     inkscape:showpageshadow="0"
     inkscape:pageopacity="0"
     inkscape:pagecheckerboard="1"
     inkscape:deskcolor="#d1d1d1"
     inkscape:document-units="px"
     inkscape:zoom="5.6568542"
     inkscape:cx="-56.568543"
     inkscape:cy="31.289475"
     inkscape:window-width="2560"
     inkscape:window-height="1009"
     inkscape:window-x="-8"
     inkscape:window-y="-8"
     inkscape:window-maximized="1"
     inkscape:current-layer="g4"
     showguides="true"><sodipodi:guide
       position="3.9687495,3.9687495"
       orientation="1,0"
       id="guide2"
       inkscape:locked="false" /></sodipodi:namedview><defs
     id="defs1"><inkscape:path-effect
       effect="mirror_symmetry"
       start_point="3.9687495,2.4059535"
       end_point="3.9687495,5.3522801"
       center_point="3.9687495,3.8791168"
       id="path-effect4"
       is_visible="true"
       lpeversion="1.2"
       lpesatellites=""
       mode="free"
       discard_orig_path="false"
       fuse_paths="false"
       oposite_fuse="false"
       split_items="false"
       split_open="false"
       link_styles="false" /><linearGradient
       id="linearGradient3"
       inkscape:collect="always"><stop
         style="stop-color:#8498bf;stop-opacity:1;"
         offset="0"
         id="stop3" /><stop
         style="stop-color:#3e639b;stop-opacity:1;"
         offset="1"
         id="stop4" /></linearGradient><inkscape:path-effect
       effect="mirror_symmetry"
       start_point="3.9687495,3.1655402"
       end_point="3.9687495,5.7381504"
       center_point="3.9687495,4.4518453"
       id="path-effect3"
       is_visible="true"
       lpeversion="1.2"
       lpesatellites=""
       mode="free"
       discard_orig_path="false"
       fuse_paths="false"
       oposite_fuse="false"
       split_items="false"
       split_open="false"
       link_styles="false" /><inkscape:path-effect
       effect="mirror_symmetry"
       start_point="3.9687495,2.6859264"
       end_point="3.9687495,5.3733546"
       center_point="3.9687495,4.0296405"
       id="path-effect7"
       is_visible="true"
       lpeversion="1.2"
       lpesatellites=""
       mode="free"
       discard_orig_path="false"
       fuse_paths="false"
       oposite_fuse="false"
       split_items="false"
       split_open="false"
       link_styles="false" /><inkscape:path-effect
       effect="mirror_symmetry"
       start_point="3.9687495,2.6859264"
       end_point="3.9687495,5.3733546"
       center_point="3.9687495,4.0296405"
       id="path-effect6"
       is_visible="true"
       lpeversion="1.2"
       lpesatellites=""
       mode="free"
       discard_orig_path="false"
       fuse_paths="false"
       oposite_fuse="false"
       split_items="false"
       split_open="false"
       link_styles="false" /><inkscape:path-effect
       effect="mirror_symmetry"
       start_point="3.9687495,2.6859264"
       end_point="3.9687495,5.3733546"
       center_point="3.9687495,4.0296405"
       id="path-effect2"
       is_visible="true"
       lpeversion="1.2"
       lpesatellites=""
       mode="free"
       discard_orig_path="false"
       fuse_paths="false"
       oposite_fuse="false"
       split_items="false"
       split_open="false"
       link_styles="false" /><linearGradient
       inkscape:collect="always"
       xlink:href="#linearGradient3"
       id="linearGradient4"
       x1="3.1203828"
       y1="2.9639452"
       x2="3.1203828"
       y2="5.8310003"
       gradientUnits="userSpaceOnUse"
       gradientTransform="translate(0,-0.4911077)" /></defs><g
     inkscape:label="safe zones"
     inkscape:groupmode="layer"
     id="layer1"
     style="display:none"><circle
       style="fill:none;fill-opacity:0.436834;stroke:#000000;stroke-width:0.0264583;stroke-linecap:round;stroke-linejoin:round;stroke-dasharray:none"
       id="path1"
       cx="3.9687495"
       cy="3.9687495"
       r="3.9687495" /><rect
       style="fill:#808080;fill-opacity:0.444445;stroke:#000000;stroke-width:0.0264583;stroke-linecap:round;stroke-linejoin:round;stroke-dasharray:none"
       id="rect1"
       width="7.937499"
       height="1.3229165"
       x="0"
       y="0" /><rect
       style="fill:#808080;fill-opacity:0.444445;stroke:#000000;stroke-width:0.0264583;stroke-linecap:round;stroke-linejoin:round;stroke-dasharray:none"
       id="rect2"
       width="7.937499"
       height="1.3229165"
       x="0"
       y="6.6145825" /><rect
       style="fill:#808080;fill-opacity:0.444445;stroke:#000000;stroke-width:0.0264583;stroke-linecap:round;stroke-linejoin:round;stroke-dasharray:none"
       id="rect3"
       width="7.937499"
       height="1.3229165"
       x="-4.4408921e-16"
       y="-1.3229165"
       transform="rotate(90)" /><rect
       style="fill:#808080;fill-opacity:0.444445;stroke:#000000;stroke-width:0.0264583;stroke-linecap:round;stroke-linejoin:round;stroke-dasharray:none"
       id="rect4"
       width="7.937499"
       height="1.3229165"
       x="0"
       y="-7.937499"
       transform="rotate(90)" /></g><g
     inkscape:groupmode="layer"
     id="layer2"
     inkscape:label="fly"><g
       id="g4"
       transform="matrix(1.0508236,0,0,1.0557183,-0.20170598,-0.21613779)"
       style="stroke-width:0.949426"><path
         style="color:#000000;fill:#333333;stroke-linecap:round;-inkscape-stroke:none;paint-order:markers stroke fill"
         d="M 1.4628906,2.5811579 C 1.1207403,2.6993376 0.8322602,2.8362701 0.61328125,3.0010798 0.3943023,3.1658895 0.21880664,3.383923 0.23632813,3.6573298 0.27565633,4.2710107 0.31036361,4.6191374 0.484375,4.9835017 0.58659663,5.1975446 0.77634515,5.2710426 0.9921875,5.3409235 1.2080298,5.4108045 1.4741954,5.4608933 1.78125,5.4991267 c 0.6141092,0.076467 1.3916897,0.1035156 2.1875,0.1035156 0.7958103,0 1.5733908,-0.027049 2.1875,-0.1035156 C 6.4633046,5.4608933 6.7294702,5.4108045 6.9453125,5.3409235 7.1611548,5.2710426 7.3509034,5.1975446 7.453125,4.9835017 7.6271364,4.6191374 7.6618437,4.2710107 7.7011719,3.6573298 7.7186934,3.383923 7.5431977,3.1658895 7.3242187,3.0010798 7.1052398,2.8362701 6.8167597,2.6993376 6.4746094,2.5811579 5.7903088,2.3447985 4.8913804,2.1869617 3.96875,2.1869617 c -0.9226304,0 -1.8215588,0.1578368 -2.5058594,0.3941962 z"
         id="path3"
         sodipodi:nodetypes="ssssssssssssscs" /><path
         style="color:#000000;fill:url(#linearGradient4);stroke-linecap:round;-inkscape-stroke:none;paint-order:markers stroke fill"
         d="m 0.48723786,3.6416887 c 0.0391305,0.6105963 0.0698392,0.9131687 0.22299878,1.2338712 0.17193345,0.3600132 1.67926656,0.4767202 3.25851286,0.4767202 1.5792463,0 3.0865794,-0.116707 3.2585129,-0.4767202 C 7.380422,4.5548574 7.4111306,4.252285 7.4502611,3.6416887 7.4891604,3.0347017 5.7518797,2.4059535 3.9687495,2.4059535 c -1.7831302,0 -3.52041087,0.6287482 -3.48151164,1.2357352 z"
         id="path7"
         sodipodi:nodetypes="sscssss" /><path
         id="path4"
         style="color:#000000;fill:#333333;stroke-linecap:round;-inkscape-stroke:none;paint-order:markers stroke fill"
         d="M 2.2303399 3.8847214 A 0.12560099 0.12560099 0 0 0 2.1152656 4.0212893 L 2.2072267 5.0702678 A 0.12560099 0.12560099 0 0 0 2.3419719 5.1857876 A 0.12560099 0.12560099 0 0 0 2.4570462 5.0487302 L 2.3650851 4.0002412 A 0.12560099 0.12560099 0 0 0 2.2303399 3.8847214 z M 5.7071588 3.8847214 A 0.12560099 0.12560099 0 0 0 5.5724136 4.0002412 L 5.4804525 5.0487302 A 0.12560099 0.12560099 0 0 0 5.5955268 5.1857876 A 0.12560099 0.12560099 0 0 0 5.730272 5.0702678 L 5.8222331 4.0212893 A 0.12560099 0.12560099 0 0 0 5.7071588 3.8847214 z M 1.3903956 3.9101749 A 0.12560099 0.12560099 0 0 0 1.2812225 4.0487008 L 1.3884285 4.9846069 A 0.12560099 0.12560099 0 0 0 1.5271078 5.0937634 A 0.12560099 0.12560099 0 0 0 1.6387398 4.9552375 L 1.531042 4.0212893 A 0.12560099 0.12560099 0 0 0 1.3903956 3.9101749 z M 6.5471031 3.9101749 A 0.12560099 0.12560099 0 0 0 6.4064567 4.0212893 L 6.2987589 4.9552375 A 0.12560099 0.12560099 0 0 0 6.4103909 5.0937634 A 0.12560099 0.12560099 0 0 0 6.5490702 4.9846069 L 6.6562762 4.0487008 A 0.12560099 0.12560099 0 0 0 6.5471031 3.9101749 z M 3.2463382 3.9180068 A 0.12560099 0.12560099 0 0 0 3.1229037 4.0467428 L 3.1484758 5.1035532 A 0.12560099 0.12560099 0 0 0 3.2773197 5.2264153 A 0.12560099 0.12560099 0 0 0 3.4002624 5.0976793 L 3.3751821 4.0408689 A 0.12560099 0.12560099 0 0 0 3.2463382 3.9180068 z M 4.6911605 3.9180068 A 0.12560099 0.12560099 0 0 0 4.5623166 4.0408689 L 4.5372363 5.0976793 A 0.12560099 0.12560099 0 0 0 4.660179 5.2264153 A 0.12560099 0.12560099 0 0 0 4.7890229 5.1035532 L 4.814595 4.0467428 A 0.12560099 0.12560099 0 0 0 4.6911605 3.9180068 z " /></g></g></svg>
