<?xml version="1.0" encoding="UTF-8" standalone="no"?>
<!-- Created with Inkscape (http://www.inkscape.org/) -->

<svg
   width="30"
   height="30"
   viewBox="0 0 7.937499 7.937499"
   version="1.1"
   id="svg1"
   inkscape:version="1.3 (0e150ed6c4, 2023-07-21)"
   sodipodi:docname="icon_sail.svg"
   inkscape:export-filename="icon_sail.png"
   inkscape:export-xdpi="96"
   inkscape:export-ydpi="96"
   xml:space="preserve"
   xmlns:inkscape="http://www.inkscape.org/namespaces/inkscape"
   xmlns:sodipodi="http://sodipodi.sourceforge.net/DTD/sodipodi-0.dtd"
   xmlns:xlink="http://www.w3.org/1999/xlink"
   xmlns="http://www.w3.org/2000/svg"
   xmlns:svg="http://www.w3.org/2000/svg"><sodipodi:namedview
     id="namedview1"
     pagecolor="#ffffff"
     bordercolor="#111111"
     borderopacity="1"
     inkscape:showpageshadow="0"
     inkscape:pageopacity="0"
     inkscape:pagecheckerboard="1"
     inkscape:deskcolor="#d1d1d1"
     inkscape:document-units="px"
     inkscape:zoom="7.9999999"
     inkscape:cx="-7.0625001"
     inkscape:cy="48.500001"
     inkscape:window-width="2560"
     inkscape:window-height="1009"
     inkscape:window-x="-8"
     inkscape:window-y="-8"
     inkscape:window-maximized="1"
     inkscape:current-layer="layer2"
     showguides="true"><sodipodi:guide
       position="3.9687495,3.9687495"
       orientation="1,0"
       id="guide2"
       inkscape:locked="false" /></sodipodi:namedview><defs
     id="defs1"><linearGradient
       id="linearGradient3"
       inkscape:collect="always"><stop
         style="stop-color:#55ddff;stop-opacity:1;"
         offset="0"
         id="stop3" /><stop
         style="stop-color:#d5e5ff;stop-opacity:1"
         offset="1"
         id="stop4" /></linearGradient><inkscape:path-effect
       effect="mirror_symmetry"
       start_point="3.9687495,2.4059535"
       end_point="3.9687495,5.3522801"
       center_point="3.9687495,3.8791168"
       id="path-effect4"
       is_visible="true"
       lpeversion="1.2"
       lpesatellites=""
       mode="free"
       discard_orig_path="false"
       fuse_paths="false"
       oposite_fuse="false"
       split_items="false"
       split_open="false"
       link_styles="false" /><inkscape:path-effect
       effect="mirror_symmetry"
       start_point="3.9687495,3.1655402"
       end_point="3.9687495,5.7381504"
       center_point="3.9687495,4.4518453"
       id="path-effect3"
       is_visible="true"
       lpeversion="1.2"
       lpesatellites=""
       mode="free"
       discard_orig_path="false"
       fuse_paths="false"
       oposite_fuse="false"
       split_items="false"
       split_open="false"
       link_styles="false" /><inkscape:path-effect
       effect="mirror_symmetry"
       start_point="3.9687495,2.6859264"
       end_point="3.9687495,5.3733546"
       center_point="3.9687495,4.0296405"
       id="path-effect7"
       is_visible="true"
       lpeversion="1.2"
       lpesatellites=""
       mode="free"
       discard_orig_path="false"
       fuse_paths="false"
       oposite_fuse="false"
       split_items="false"
       split_open="false"
       link_styles="false" /><inkscape:path-effect
       effect="mirror_symmetry"
       start_point="3.9687495,2.6859264"
       end_point="3.9687495,5.3733546"
       center_point="3.9687495,4.0296405"
       id="path-effect6"
       is_visible="true"
       lpeversion="1.2"
       lpesatellites=""
       mode="free"
       discard_orig_path="false"
       fuse_paths="false"
       oposite_fuse="false"
       split_items="false"
       split_open="false"
       link_styles="false" /><inkscape:path-effect
       effect="mirror_symmetry"
       start_point="3.9687495,2.6859264"
       end_point="3.9687495,5.3733546"
       center_point="3.9687495,4.0296405"
       id="path-effect2"
       is_visible="true"
       lpeversion="1.2"
       lpesatellites=""
       mode="free"
       discard_orig_path="false"
       fuse_paths="false"
       oposite_fuse="false"
       split_items="false"
       split_open="false"
       link_styles="false" /><linearGradient
       inkscape:collect="always"
       xlink:href="#linearGradient3"
       id="linearGradient4"
       x1="3.5910132"
       y1="2.0124502"
       x2="4.3465853"
       y2="2.0214365"
       gradientUnits="userSpaceOnUse"
       gradientTransform="translate(0,0.3544291)" /><linearGradient
       inkscape:collect="always"
       xlink:href="#linearGradient3"
       id="linearGradient12"
       gradientUnits="userSpaceOnUse"
       gradientTransform="translate(0,0.3544291)"
       x1="3.5910132"
       y1="2.0124502"
       x2="4.3465853"
       y2="2.0214365" /></defs><g
     inkscape:groupmode="layer"
     id="layer2"
     inkscape:label="sailplane"><g
       id="g4"
       transform="matrix(1.0508236,0,0,1.0557183,-0.20170598,-0.21613779)"
       style="stroke-width:0.949426"
       inkscape:label="left"><path
         id="path7"
         style="color:#000000;fill:#333333;stroke-linecap:round;-inkscape-stroke:none;paint-order:markers stroke fill"
         d="m 3.9687494,1.5263554 c -0.021553,-0.00147 -0.043206,-1.541e-4 -0.064422,0.00392 C 3.7195722,1.5795466 3.6678741,1.6938443 3.6072979,1.8038966 3.5467215,1.9139488 3.4972941,2.0443807 3.454849,2.1925522 3.3890831,2.4221328 3.3428563,2.6927984 3.3338734,2.9688844 c -0.2141743,1.443e-4 -0.5431009,0.0011 -0.9820661,0.00587 -0.6393352,0.00696 -1.35955978,0.020251 -1.75611318,0.056291 -0.13518866,0.012286 -0.28305342,0.086346 -0.34571481,0.2050966 -0.0626614,0.1187508 -0.0426292,0.2146519 -0.040817,0.2422979 l 0.0132778,0.2227182 0.22277213,0.011748 c 0.87136012,0.050288 2.06987872,0.040349 3.00078482,0.053354 0.068627,0.2471306 0.1431226,0.4644542 0.1475312,0.6568964 0.019891,0.8682893 0.020742,1.5905915 0.021638,1.7910464 l -0.2734245,0.01909 c -0.1087297,0.00786 -0.1621825,0.044019 -0.220805,0.078318 -0.058623,0.0343 -0.111508,0.07265 -0.1598255,0.1150304 -0.048318,0.04238 -0.090968,0.076763 -0.1347452,0.1585949 -0.021889,0.040916 -0.069071,0.1137064 -0.015737,0.2418084 0.026667,0.064051 0.087032,0.1184595 0.1367122,0.1409733 0.049681,0.022514 0.088851,0.025173 0.1190085,0.025454 l 0.9004322,0.00783 c 6.564e-4,-1.605e-4 0.00131,-3.237e-4 0.00197,-4.895e-4 z"
         sodipodi:nodetypes="ccsscsssccccsccssssscccc" /><path
         id="path6"
         style="color:#000000;fill:#cccccc;stroke-linecap:round;-inkscape-stroke:none;paint-order:markers stroke fill"
         d="M 3.9687494,1.7725692 C 3.8778684,1.7968082 3.7735455,1.9919437 3.6963084,2.2615703 3.6472587,2.4327976 3.6090559,2.6340249 3.5922949,2.8402479 3.5790677,3.0029912 3.5819065,3.1014184 3.5910711,3.196008 3.5708988,3.1947454 1.3956365,3.2110198 0.61831717,3.281665 0.44507124,3.2974139 0.4552486,3.3983271 0.45947363,3.4627805 1.3760964,3.5156811 2.897133,3.4990334 3.8571174,3.5171139 3.873139,3.582398 3.6824215,3.6470818 3.7005701,3.7113632 c 0.066999,0.2373082 0.1388397,0.4691329 0.144253,0.7054346 0.022574,0.9853997 0.026064,2.0304073 0.026064,2.0304073 l -0.5109498,0.036712 c -0.1204077,0.0087 -0.4058319,0.2573874 -0.29162,0.258451 l 0.9004322,0.00832 -10e-8,-3.4890065 z"
         sodipodi:nodetypes="csscsccsscccccc" /><path
         style="fill:url(#linearGradient4);fill-opacity:1;stroke:none;stroke-width:0.502404;stroke-linecap:round;-inkscape-stroke:none;paint-order:stroke fill markers"
         d="M 3.9687494,1.8965758 C 3.8311459,1.9511232 3.7936616,2.0455327 3.7586962,2.140945 3.7078892,2.3045752 3.7360266,2.6888331 3.7238906,2.9468643 l 0.2448587,0.00469"
         id="path3"
         sodipodi:nodetypes="cccc" /></g><g
       id="g12"
       transform="matrix(-1.0508236,0,0,1.0557183,8.1392051,-0.21613779)"
       style="stroke-width:0.949426"
       inkscape:label="right"><path
         id="path10"
         style="color:#000000;fill:#333333;stroke-linecap:round;-inkscape-stroke:none;paint-order:markers stroke fill"
         d="m 3.9687494,1.5263554 c -0.021553,-0.00147 -0.043206,-1.541e-4 -0.064422,0.00392 C 3.7195722,1.5795466 3.6678741,1.6938443 3.6072979,1.8038966 3.5467215,1.9139488 3.4972941,2.0443807 3.454849,2.1925522 3.3890831,2.4221328 3.3428563,2.6927984 3.3338734,2.9688844 c -0.2141743,1.443e-4 -0.5431009,0.0011 -0.9820661,0.00587 -0.6393352,0.00696 -1.35955978,0.020251 -1.75611318,0.056291 -0.13518866,0.012286 -0.28305342,0.086346 -0.34571481,0.2050966 -0.0626614,0.1187508 -0.0426292,0.2146519 -0.040817,0.2422979 l 0.0132778,0.2227182 0.22277213,0.011748 c 0.87136016,0.050288 2.06987876,0.040349 3.00078486,0.053354 0.068627,0.2471306 0.1431226,0.4644542 0.1475312,0.6568964 0.019891,0.8682893 0.020742,1.5905915 0.021638,1.7910464 l -0.2734245,0.01909 c -0.1087297,0.00786 -0.1621825,0.044019 -0.220805,0.078318 -0.058623,0.0343 -0.111508,0.07265 -0.1598255,0.1150304 -0.048318,0.04238 -0.090968,0.076763 -0.1347452,0.1585949 -0.021889,0.040916 -0.069071,0.1137064 -0.015737,0.2418084 0.026667,0.064051 0.087032,0.1184595 0.1367122,0.1409733 0.049681,0.022514 0.088851,0.025173 0.1190085,0.025454 l 0.9004322,0.00783 c 6.564e-4,-1.605e-4 0.00131,-3.237e-4 0.00197,-4.895e-4 z"
         sodipodi:nodetypes="ccsscsssccccsccssssscccc" /><path
         id="path11"
         style="color:#000000;fill:#ececec;stroke-linecap:round;-inkscape-stroke:none;paint-order:markers stroke fill"
         d="M 3.9687494,1.7725692 C 3.8778684,1.7968082 3.7735455,1.9919437 3.6963084,2.2615703 3.6472587,2.4327976 3.6090559,2.6340249 3.5922949,2.8402479 3.5790677,3.0029912 3.5819065,3.1014184 3.5910711,3.196008 3.5708988,3.1947454 1.3956365,3.2110198 0.61831717,3.281665 0.44507124,3.2974139 0.4552486,3.3983271 0.45947363,3.4627805 1.3760964,3.5156811 2.897133,3.4990334 3.8571174,3.5171139 3.873139,3.582398 3.6824215,3.6470818 3.7005701,3.7113632 c 0.066999,0.2373082 0.1388397,0.4691329 0.144253,0.7054346 0.022574,0.9853997 0.026064,2.0304073 0.026064,2.0304073 l -0.5109498,0.036712 c -0.1204077,0.0087 -0.4058319,0.2573874 -0.29162,0.258451 l 0.9004322,0.00832 -10e-8,-3.4890065 z"
         sodipodi:nodetypes="csscsccsscccccc" /><path
         style="fill:url(#linearGradient12);fill-opacity:1;stroke:none;stroke-width:0.502404;stroke-linecap:round;-inkscape-stroke:none;paint-order:stroke fill markers"
         d="M 3.9687494,1.8965758 C 3.8311459,1.9511232 3.7936616,2.0455327 3.7586962,2.140945 3.7078892,2.3045752 3.7360266,2.6888331 3.7238906,2.9468643 l 0.2448587,0.00469"
         id="path12"
         sodipodi:nodetypes="cccc" /></g></g></svg>
