<?xml version="1.0" encoding="UTF-8" standalone="no"?>
<!-- Created with Inkscape (http://www.inkscape.org/) -->

<svg
   width="30"
   height="30"
   viewBox="0 0 7.937499 7.937499"
   version="1.1"
   id="svg1"
   inkscape:version="1.3 (0e150ed6c4, 2023-07-21)"
   sodipodi:docname="icon_fly.svg"
   inkscape:export-filename="icon_fly.png"
   inkscape:export-xdpi="96"
   inkscape:export-ydpi="96"
   xml:space="preserve"
   xmlns:inkscape="http://www.inkscape.org/namespaces/inkscape"
   xmlns:sodipodi="http://sodipodi.sourceforge.net/DTD/sodipodi-0.dtd"
   xmlns:xlink="http://www.w3.org/1999/xlink"
   xmlns="http://www.w3.org/2000/svg"
   xmlns:svg="http://www.w3.org/2000/svg"><sodipodi:namedview
     id="namedview1"
     pagecolor="#ffffff"
     bordercolor="#111111"
     borderopacity="1"
     inkscape:showpageshadow="0"
     inkscape:pageopacity="0"
     inkscape:pagecheckerboard="1"
     inkscape:deskcolor="#d1d1d1"
     inkscape:document-units="px"
     inkscape:zoom="16"
     inkscape:cx="12.34375"
     inkscape:cy="17.375"
     inkscape:window-width="2560"
     inkscape:window-height="1009"
     inkscape:window-x="-8"
     inkscape:window-y="-8"
     inkscape:window-maximized="1"
     inkscape:current-layer="layer2"
     showguides="true"><sodipodi:guide
       position="3.9687495,3.9687495"
       orientation="1,0"
       id="guide2"
       inkscape:locked="false" /></sodipodi:namedview><defs
     id="defs1"><inkscape:path-effect
       effect="mirror_symmetry"
       start_point="3.9687495,2.4059535"
       end_point="3.9687495,5.3522801"
       center_point="3.9687495,3.8791168"
       id="path-effect4"
       is_visible="true"
       lpeversion="1.2"
       lpesatellites=""
       mode="free"
       discard_orig_path="false"
       fuse_paths="false"
       oposite_fuse="false"
       split_items="false"
       split_open="false"
       link_styles="false" /><linearGradient
       id="linearGradient3"
       inkscape:collect="always"><stop
         style="stop-color:#8498bf;stop-opacity:1;"
         offset="0"
         id="stop3" /><stop
         style="stop-color:#3e639b;stop-opacity:1;"
         offset="1"
         id="stop4" /></linearGradient><inkscape:path-effect
       effect="mirror_symmetry"
       start_point="3.9687495,3.1655402"
       end_point="3.9687495,5.7381504"
       center_point="3.9687495,4.4518453"
       id="path-effect3"
       is_visible="true"
       lpeversion="1.2"
       lpesatellites=""
       mode="free"
       discard_orig_path="false"
       fuse_paths="false"
       oposite_fuse="false"
       split_items="false"
       split_open="false"
       link_styles="false" /><inkscape:path-effect
       effect="mirror_symmetry"
       start_point="3.9687495,2.6859264"
       end_point="3.9687495,5.3733546"
       center_point="3.9687495,4.0296405"
       id="path-effect7"
       is_visible="true"
       lpeversion="1.2"
       lpesatellites=""
       mode="free"
       discard_orig_path="false"
       fuse_paths="false"
       oposite_fuse="false"
       split_items="false"
       split_open="false"
       link_styles="false" /><inkscape:path-effect
       effect="mirror_symmetry"
       start_point="3.9687495,2.6859264"
       end_point="3.9687495,5.3733546"
       center_point="3.9687495,4.0296405"
       id="path-effect6"
       is_visible="true"
       lpeversion="1.2"
       lpesatellites=""
       mode="free"
       discard_orig_path="false"
       fuse_paths="false"
       oposite_fuse="false"
       split_items="false"
       split_open="false"
       link_styles="false" /><inkscape:path-effect
       effect="mirror_symmetry"
       start_point="3.9687495,2.6859264"
       end_point="3.9687495,5.3733546"
       center_point="3.9687495,4.0296405"
       id="path-effect2"
       is_visible="true"
       lpeversion="1.2"
       lpesatellites=""
       mode="free"
       discard_orig_path="false"
       fuse_paths="false"
       oposite_fuse="false"
       split_items="false"
       split_open="false"
       link_styles="false" /><linearGradient
       inkscape:collect="always"
       xlink:href="#linearGradient3"
       id="linearGradient4"
       x1="3.1203828"
       y1="2.9639452"
       x2="3.1203828"
       y2="5.8310003"
       gradientUnits="userSpaceOnUse"
       gradientTransform="matrix(1.0508236,0,0,1.0557183,-0.20170598,-0.73460918)" /></defs><g
     inkscape:groupmode="layer"
     id="layer2"
     inkscape:label="fly"><path
       style="color:#000000;fill:#333333;stroke-width:1;stroke-linecap:round;-inkscape-stroke:none;paint-order:markers stroke fill"
       d="M 1.335534,2.5088378 C 0.97599438,2.6336023 0.67285268,2.7781645 0.44274443,2.9521571 0.21263618,3.1261497 0.0282212,3.3563316 0.0466332,3.6449722 c 0.041327,0.6478742 0.07779823,1.0153979 0.2606535,1.400064 0.1074169,0.225969 0.30680913,0.3035621 0.53362136,0.3773367 0.22681214,0.073775 0.50650524,0.1266543 0.82916554,0.167018 0.6453204,0.080728 1.4624203,0.1092833 2.2986766,0.1092833 0.8362562,0 1.6533562,-0.028556 2.2986766,-0.1092833 C 6.590087,5.5490272 6.8697801,5.4961475 7.0965923,5.4223729 7.3234045,5.3485983 7.5227968,5.2710052 7.6302137,5.0450362 7.8130689,4.6603701 7.8495402,4.2928464 7.8908672,3.6449722 7.9092792,3.3563316 7.7248642,3.1261497 7.4947559,2.9521571 7.2646477,2.7781645 6.961506,2.6336023 6.6019664,2.5088378 5.8828872,2.2593089 4.938272,2.0926777 3.9687502,2.0926777 c -0.9695218,0 -1.914137,0.1666312 -2.6332162,0.4161601 z"
       id="path3"
       sodipodi:nodetypes="ssssssssssssscs" /><path
       style="color:#000000;fill:url(#linearGradient4);stroke-width:1;stroke-linecap:round;-inkscape-stroke:none;paint-order:markers stroke fill"
       d="M 0.31029506,3.6284596 C 0.35141431,4.2730773 0.38368374,4.5925085 0.54462744,4.93108 0.72529917,5.3111525 2.3092404,5.4343623 3.9687497,5.4343623 5.6282589,5.4343623 7.2122001,5.3111525 7.3928719,4.93108 7.5538156,4.5925085 7.586085,4.2730773 7.6272042,3.6284596 7.6680805,2.9876523 5.842505,2.3238713 3.9687497,2.3238713 c -1.8737553,0 -3.69933087,0.663781 -3.65845464,1.3045883 z"
       id="path7"
       sodipodi:nodetypes="sscssss" /><path
       id="path4"
       style="color:#000000;fill:#333333;stroke-width:1;stroke-linecap:round;-inkscape-stroke:none;paint-order:markers stroke fill"
       d="M 2.1419878,3.8850337 A 0.13198448,0.13259926 0 0 0 2.021065,4.0292109 L 2.1177,5.1366367 A 0.13198448,0.13259926 0 0 0 2.2592934,5.2585931 0.13198448,0.13259926 0 0 0 2.3802162,5.1138991 L 2.2835813,4.00699 A 0.13198448,0.13259926 0 0 0 2.1419878,3.8850337 Z m 3.6535234,0 A 0.13198448,0.13259926 0 0 0 5.6539177,4.00699 L 5.557283,5.1138991 A 0.13198448,0.13259926 0 0 0 5.6782056,5.2585931 0.13198448,0.13259926 0 0 0 5.8197991,5.1366367 L 5.916434,4.0292109 A 0.13198448,0.13259926 0 0 0 5.7955112,3.8850337 Z M 1.2593545,3.9119054 A 0.13198448,0.13259926 0 0 0 1.1446329,4.0581497 L 1.2572875,5.0462029 A 0.13198448,0.13259926 0 0 0 1.4030149,5.1614414 0.13198448,0.13259926 0 0 0 1.5203205,5.0151971 L 1.4071491,4.0292109 A 0.13198448,0.13259926 0 0 0 1.2593545,3.9119054 Z m 5.41879,0 A 0.13198448,0.13259926 0 0 0 6.5303499,4.0292109 L 6.4171785,5.0151971 A 0.13198448,0.13259926 0 0 0 6.5344841,5.1614414 0.13198448,0.13259926 0 0 0 6.6802115,5.0462029 L 6.7928661,4.0581497 A 0.13198448,0.13259926 0 0 0 6.6781445,3.9119054 Z m -3.4685217,0.00827 A 0.13198448,0.13259926 0 0 0 3.0799149,4.0560806 l 0.026872,1.1156941 A 0.13198448,0.13259926 0 0 0 3.2421789,5.3014845 0.13198448,0.13259926 0 0 0 3.37137,5.1655755 L 3.345015,4.0498815 A 0.13198448,0.13259926 0 0 0 3.2096228,3.9201737 Z m 1.5182534,0 A 0.13198448,0.13259926 0 0 0 4.592484,4.0498815 L 4.566129,5.1655755 A 0.13198448,0.13259926 0 0 0 4.6953201,5.3014845 0.13198448,0.13259926 0 0 0 4.8307123,5.1717767 L 4.8575841,4.0560826 A 0.13198448,0.13259926 0 0 0 4.7278762,3.9201737 Z" /></g></svg>
