<?xml version="1.0" encoding="UTF-8" standalone="no"?>
<!-- Created with Inkscape (http://www.inkscape.org/) -->

<svg
   width="30"
   height="30"
   viewBox="0 0 7.937499 7.937499"
   version="1.1"
   id="svg1"
   inkscape:version="1.3 (0e150ed6c4, 2023-07-21)"
   sodipodi:docname="icon_help.svg"
   inkscape:export-filename="icon_help.png"
   inkscape:export-xdpi="96"
   inkscape:export-ydpi="96"
   xmlns:inkscape="http://www.inkscape.org/namespaces/inkscape"
   xmlns:sodipodi="http://sodipodi.sourceforge.net/DTD/sodipodi-0.dtd"
   xmlns="http://www.w3.org/2000/svg"
   xmlns:svg="http://www.w3.org/2000/svg">
  <sodipodi:namedview
     id="namedview1"
     pagecolor="#ffffff"
     bordercolor="#111111"
     borderopacity="1"
     inkscape:showpageshadow="0"
     inkscape:pageopacity="0"
     inkscape:pagecheckerboard="1"
     inkscape:deskcolor="#d1d1d1"
     inkscape:document-units="px"
     inkscape:zoom="5.9580249"
     inkscape:cx="-19.889141"
     inkscape:cy="39.27476"
     inkscape:window-width="2560"
     inkscape:window-height="1009"
     inkscape:window-x="-8"
     inkscape:window-y="-8"
     inkscape:window-maximized="1"
     inkscape:current-layer="layer2"
     showguides="true">
    <sodipodi:guide
       position="3.9687495,3.9687495"
       orientation="-1,0"
       id="guide1"
       inkscape:locked="false"
       inkscape:label=""
       inkscape:color="rgb(0,134,229)" />
  </sodipodi:namedview>
  <defs
     id="defs1" />
  <g
     inkscape:groupmode="layer"
     id="layer2"
     inkscape:label="SOS">
    <path
       style="color:#000000;-inkscape-font-specification:'Roboto Medium';fill:#ff0000;stroke-linecap:round;stroke-linejoin:round;-inkscape-stroke:none;paint-order:stroke markers fill"
       d="m 1.4999536,1.0790739 c -0.3389064,0 -0.64996881,0.1500045 -0.89304466,0.4736779 a 0.30604523,0.51476464 0 0 0 -0.001506,0 C 0.36545944,1.874489 0.21987281,2.3656655 0.21987281,2.8775304 c 0,0.5952341 0.20661984,1.13853 0.51956226,1.4691616 a 0.30604523,0.51476464 0 0 0 0,0.00253 c 0.007824,0.00822 0.0206366,0.012204 0.0286136,0.020264 H 0.44125142 A 0.30604523,0.51476464 0 0 0 0.13553798,4.8836959 c 0,0.38135 0.0654114,0.7529976 0.1942711,1.0588096 a 0.30604523,0.51476464 0 0 0 0.001506,0.00253 C 0.458574,6.2429703 0.63614869,6.473187 0.84334742,6.6289586 a 0.30604523,0.51476464 0 0 0 0.003015,0.00253 C 1.0544016,6.7840842 1.2802827,6.856928 1.5165223,6.856928 c 0.3463761,0 0.6585076,-0.1323939 0.9005746,-0.4458146 0.1712173,-0.2221601 0.2150465,-0.5920058 0.271073,-0.9397528 0.00269,0.00997 0.00176,0.023022 0.00452,0.03293 a 0.30604523,0.51476464 0 0 0 0.0015,0.00253 c 0.1172009,0.4150082 0.2927687,0.7607239 0.5165522,0.9980203 a 0.30604523,0.51476464 0 0 0 0.00301,0.00253 C 3.4380707,6.7408 3.6990034,6.856928 3.9712657,6.856928 c 0.2742248,0 0.5358109,-0.1138925 0.7590127,-0.3495592 a 0.30604523,0.51476464 0 0 0 0,-0.00253 C 4.9550736,6.2664706 5.1308057,5.9157615 5.2453227,5.4966909 c 0.00103,-0.00379 4.883e-4,-0.00887 0.0015,-0.012671 0.031815,0.1527323 0.028525,0.3260297 0.084335,0.4584797 a 0.30604523,0.51476464 0 0 0 0.0015,0.00253 c 0.127259,0.2979319 0.3048336,0.5281485 0.5120324,0.68392 a 0.30604523,0.51476464 0 0 0 0.00301,0.00253 c 0.2080392,0.1525967 0.4339203,0.2254404 0.67016,0.2254404 0.3463761,0 0.6585076,-0.1323939 0.9005746,-0.4458145 C 7.6604172,6.0971381 7.8024707,5.6009308 7.8024707,5.083792 7.8024707,4.7732394 7.7602012,4.4698665 7.6699446,4.2073611 7.5799083,3.9430568 7.4453189,3.7279119 7.2844143,3.5589035 l -0.00301,-0.00253 C 7.267643,3.5418452 7.2459153,3.5349222 7.2317039,3.520922 H 7.4937442 A 0.30604523,0.51476464 0 0 0 7.800964,3.0067154 c 0,-0.3584171 -0.062571,-0.7100765 -0.1792117,-1.0081489 C 7.5052182,1.6987876 7.3382951,1.4617456 7.1428515,1.3070472 6.9477066,1.1525853 6.7301315,1.0790739 6.501305,1.0790739 c -0.3389064,0 -0.6499688,0.1500044 -0.8930446,0.4736779 a 0.30604523,0.51476464 0 0 0 -0.0015,0 C 5.399429,1.8307516 5.3072377,2.2629899 5.2739333,2.6976847 5.2562705,2.6145125 5.2628568,2.5110364 5.2408018,2.4317158 v -0.00253 C 5.1251089,2.0122827 4.9475627,1.664964 4.7227456,1.431166 4.5000991,1.1966723 4.2394822,1.0790739 3.9667448,1.0790739 c -0.273815,0 -0.5351707,0.1197998 -0.7590127,0.3571583 C 2.9864001,1.6703958 2.8136998,2.0182398 2.6972058,2.4317158 2.6679506,2.2875461 2.6705064,2.1266064 2.6204009,1.9985664 2.5038668,1.6987876 2.3369437,1.4617456 2.1415001,1.3070472 1.9463553,1.1525853 1.72878,1.0790739 1.4999536,1.0790739 Z m 0.5843193,0.9777524 0.00452,0.00507 c -0.00121,-0.00187 -0.0033,-6.81e-4 -0.00452,-0.00253 -3.564e-4,-5.352e-4 3.572e-4,-0.002 0,-0.00253 z M 1.4969416,2.7508786 c 0.1174881,0 0.1585684,0.041457 0.1777054,0.070924 a 0.30604523,0.51476464 0 0 0 0.00301,0.00507 c 0.023155,0.034619 0.033129,0.046947 0.033129,0.1798414 A 0.30604523,0.51476464 0 0 0 1.8613882,3.257486 C 1.800663,3.2207712 1.7578087,3.168892 1.6912128,3.1359002 h -0.0015 C 1.4941721,3.036956 1.3649988,2.9317729 1.3237543,2.8825965 l -0.0015,-0.00253 c -0.018505,-0.019214 -0.012048,0.00158 -0.012048,-0.0076 0,-0.075335 -0.00306,-0.04479 0.010542,-0.060793 0.016973,-0.021555 0.064697,-0.060793 0.1761994,-0.060793 z m 5.0013515,0 c 0.117488,0 0.1585684,0.041457 0.1777053,0.070924 a 0.30604523,0.51476464 0 0 0 0.00301,0.00507 c 0.023158,0.034623 0.033132,0.046951 0.033132,0.1798457 A 0.30604523,0.51476464 0 0 0 6.8627396,3.257486 C 6.8020144,3.2207712 6.7591601,3.168892 6.6925642,3.1359002 h -0.0015 C 6.4955235,3.036956 6.3663502,2.9317729 6.3251057,2.8825965 l -0.0015,-0.00253 c -0.018505,-0.019214 -0.012048,0.00158 -0.012048,-0.0076 0,-0.075335 -0.00306,-0.04479 0.010542,-0.060793 0.016973,-0.021555 0.064697,-0.060793 0.1761994,-0.060793 z m -2.5315483,0.02533 c 0.1330517,0 0.176086,0.038895 0.2394504,0.1899778 a 0.30604523,0.51476464 0 0 0 0,0.00253 c 0.063229,0.1491244 0.1174663,0.4320559 0.1174663,0.878968 v 0.2406386 c 0,0.4571351 -0.055108,0.745127 -0.1159603,0.889096 a 0.30604523,0.51476464 0 0 0 0,0.00253 c -0.061708,0.147619 -0.1027795,0.1874488 -0.2364384,0.1874488 -0.1283627,0 -0.1739363,-0.039481 -0.2424624,-0.20011 C 3.6631029,4.8107795 3.6098281,4.5285371 3.6098281,4.0883223 V 3.8274194 3.8223485 C 3.6125654,3.3955508 3.6661001,3.1214998 3.7303063,2.9712479 3.797417,2.8146782 3.8406362,2.7762089 3.9667448,2.7762089 Z m 1.3689336,0.4230172 c 0.066786,0.4412875 0.1607975,0.8893457 0.405108,1.1474659 a 0.30604523,0.51476464 0 0 0 0,0.00253 c 0.00782,0.00822 0.020637,0.012204 0.028613,0.020264 H 5.4426028 A 0.30604523,0.51476464 0 0 0 5.362786,4.5037404 c 0.00945,-0.144149 0.049697,-0.2642889 0.049697,-0.4154181 V 3.8324854 a 0.30604523,0.51476464 0 0 0 0,-0.00253 C 5.4118417,3.6001175 5.3586572,3.4120105 5.3356784,3.1992261 Z M 2.5782335,3.3765387 C 2.5654632,3.5412652 2.5210062,3.681593 2.5210062,3.8552828 V 3.9591372 C 2.4459534,3.8193619 2.3823701,3.6632274 2.2830619,3.5589174 l -0.00301,-0.00253 C 2.266292,3.541845 2.2445641,3.5349226 2.2303527,3.5209219 H 2.4923928 A 0.30604523,0.51476464 0 0 0 2.5782335,3.3765387 Z M 1.0300886,4.5569341 C 1.1330891,4.6308596 1.2183554,4.7173025 1.341826,4.7798414 1.5470759,4.8838021 1.680203,4.9974119 1.7017547,5.025546 a 0.30604523,0.51476464 0 0 0 0.0015,0.00253 c 0.013375,0.017204 0.00753,-0.02084 0.00753,0.060793 0,0.055604 0.00902,0.022107 -0.012048,0.050661 -0.00538,0.00728 -0.057098,0.053194 -0.1822233,0.053194 -0.1471684,0 -0.2157955,-0.052758 -0.2469803,-0.096256 -0.032819,-0.045772 -0.04518,-0.063812 -0.04518,-0.2127719 A 0.30604523,0.51476464 0 0 0 1.0300886,4.5569341 Z m 5.0013514,0 c 0.1030005,0.073925 0.1882668,0.1603684 0.3117374,0.2229073 0.2052499,0.1039607 0.338377,0.2175705 0.3599286,0.2457046 a 0.30604523,0.51476464 0 0 0 0.0015,0.00253 c 0.013375,0.017204 0.00753,-0.02084 0.00753,0.060793 0,0.055604 0.00902,0.022107 -0.012048,0.050661 -0.00538,0.00728 -0.057098,0.053194 -0.1822233,0.053194 -0.1471685,0 -0.2157956,-0.052758 -0.2469803,-0.096256 -0.032819,-0.045772 -0.04518,-0.063812 -0.04518,-0.2127719 A 0.30604523,0.51476464 0 0 0 6.03144,4.5569341 Z"
       id="path2" />
    <path
       style="color:#000000;-inkscape-font-specification:'Roboto Medium';fill:#f9f9f9;stroke-linecap:round;stroke-linejoin:round;-inkscape-stroke:none;paint-order:stroke markers fill"
       d="m 2.017293,5.0893122 q 0,-0.3047433 -0.128336,-0.4698125 Q 1.7625082,4.4544304 1.4303443,4.2861868 1.0981804,4.117943 0.90190176,3.9116064 0.52633005,3.5148054 0.52633005,2.8767492 q 0,-0.5586959 0.26988314,-0.9205786 Q 1.0679837,1.594288 1.5001742,1.594288 q 0.2868688,0 0.511457,0.177767 0.2245881,0.1777668 0.3529241,0.5079054 0.128336,0.3269641 0.128336,0.7269396 H 2.017293 q 0,-0.3618826 -0.1358852,-0.5650448 -0.133998,-0.2063366 -0.3850081,-0.2063366 -0.2340246,0 -0.364248,0.1682438 -0.128336,0.1682436 -0.128336,0.4698124 0,0.2539527 0.1396598,0.4253708 0.1396598,0.1682437 0.4605,0.3301385 0.3208401,0.1587205 0.5152315,0.365057 0.1943913,0.2031622 0.2849815,0.4698125 0.09059,0.263476 0.09059,0.6190097 0,0.5777425 -0.2642213,0.9205786 -0.262334,0.3396618 -0.7133976,0.3396618 -0.2981925,0 -0.54920276,-0.1841158 Q 0.71883413,5.9717978 0.57917431,5.6448337 0.44140178,5.3178696 0.44140178,4.8829756 h 0.47748559 q 0,0.3936267 0.15475813,0.6094864 0.1547583,0.2158599 0.4435143,0.2158599 0.249123,0 0.3736845,-0.1682436 Q 2.017293,5.3686602 2.017293,5.0893122 Z M 5.1067948,4.0893734 q 0,0.6793235 -0.1396598,1.1935777 Q 4.8274752,5.794031 4.5670284,6.0702045 4.308469,6.3432037 3.9706433,6.3432037 3.636592,6.3432037 3.3742581,6.0702045 3.1138114,5.794031 2.970377,5.2861256 2.8288298,4.7782202 2.8269426,4.1147687 V 3.8544671 q 0,-0.676149 0.1415471,-1.1935777 Q 3.1119241,2.1434607 3.3704835,1.8704617 3.6309302,1.594288 3.9668687,1.594288 q 0.3359385,0 0.5944979,0.2729992 0.2604467,0.2698248 0.4019938,0.7809046 0.1415471,0.5079054 0.1434344,1.1840545 z M 4.6293092,3.8481183 q 0,-0.7682069 -0.1736312,-1.1777057 -0.1717437,-0.4094987 -0.4888093,-0.4094987 -0.3095164,0 -0.4850348,0.4094987 Q 3.3082028,3.0767369 3.3044282,3.822723 v 0.2666504 q 0,0.7618581 0.1755184,1.1777057 0.1774057,0.4158475 0.4906967,0.4158475 0.3170655,0 0.4869221,-0.4063243 0.1717438,-0.4063244 0.1717438,-1.1872289 z m 2.3893153,1.2411939 q 0,-0.3047433 -0.128336,-0.4698125 Q 6.7638398,4.4544304 6.4316759,4.2861868 6.0995119,4.117943 5.9032333,3.9116064 5.5276616,3.5148054 5.5276616,2.8767492 q 0,-0.5586959 0.2698832,-0.9205786 0.2717704,-0.3618826 0.703961,-0.3618826 0.2868688,0 0.5114569,0.177767 Q 7.2375508,1.9498218 7.3658868,2.2799604 7.4942229,2.6069245 7.4942229,3.0069 H 7.0186245 q 0,-0.3618826 -0.1358852,-0.5650448 -0.1339979,-0.2063366 -0.3850081,-0.2063366 -0.2340246,0 -0.3642479,0.1682438 -0.1283361,0.1682436 -0.1283361,0.4698124 0,0.2539527 0.1396598,0.4253708 0.1396598,0.1682437 0.4605,0.3301385 0.3208401,0.1587205 0.5152315,0.365057 0.1943914,0.2031622 0.2849815,0.4698125 0.09059,0.263476 0.09059,0.6190097 0,0.5777425 -0.2642213,0.9205786 -0.262334,0.3396618 -0.7133975,0.3396618 -0.2981926,0 -0.5492028,-0.1841158 Q 5.7201657,5.9717978 5.5805059,5.6448337 5.4427333,5.3178696 5.4427333,4.8829756 h 0.4774856 q 0,0.3936267 0.1547582,0.6094864 0.1547582,0.2158599 0.4435143,0.2158599 0.249123,0 0.3736844,-0.1682436 0.1264487,-0.1714181 0.1264487,-0.4507661 z"
       id="path3" />
  </g>
</svg>
