<svg viewBox="18 17 225 30" xmlns="http://www.w3.org/2000/svg">
  <path d="M198 35.1c-.1 1.1-1 1.9-2.3 1.9h-2.2l1.9-5.9h2.1c1 0 1.4.5 1.4 1.2-.1.7-.6 1.3-1.3 1.6.1.2.4.5.4 1.2zm-.8.1c.1-.5-.2-.9-.8-.9H195l-.7 2.1h1.4c.8 0 1.4-.6 1.5-1.2zm-2-1.6h1.3c.7 0 1.3-.5 1.3-1.2.1-.5-.2-.8-.7-.8h-1.3l-.6 2zm8.3 2.7-.2.7h-3.8l1.9-5.9h3.7l-.2.7h-3l-.6 1.9h2.6l-.2.7h-2.6l-.6 2h3zm8.1-5.2-3.1 3.1-.9 2.8h-.8l.9-2.8-1.2-3.1h.9l.8 2.3h.1l2.3-2.3h1zm.6 3.6c.2-1.9 2-3.7 3.9-3.7 1.5 0 2.4 1 2.2 2.4-.2 1.9-2 3.6-3.9 3.6-1.5.1-2.3-.9-2.2-2.3zm5.3-1.2c.1-1.1-.5-1.8-1.5-1.8-1.4 0-2.8 1.4-3 2.9-.1 1.1.5 1.8 1.5 1.8 1.5 0 2.9-1.4 3-2.9zm8.5-2.4-1.9 5.9h-.7l-1.8-4.6h-.1l-1.4 4.6h-.8l1.9-5.9h.8l1.8 4.6h.1l1.4-4.6h.7zm6.2 2.3c-.2 2-1.7 3.6-3.9 3.6h-1.9l1.9-5.9h1.8c1.6 0 2.3.8 2.1 2.3zm-.8 0c.2-1.5-.9-1.6-1.5-1.6h-1l-1.4 4.5h1c1.6 0 2.8-1.3 2.9-2.9zM198 40.6h-1.7l-1.6 5.2h-.8l1.6-5.2h-1.7l.2-.7h4.2l-.2.7zm6.5-.7-1.9 5.9h-.8l.8-2.6h-2.9l-.8 2.6h-.8l1.9-5.9h.8l-.8 2.6h2.9l.8-2.6h.8zm4.5 5.3-.2.7H205l1.9-5.9h3.7l-.2.7h-3l-.6 1.9h2.6l-.2.7h-2.6l-.6 2h3zm11.1-2.4-1 3.1h-.6l.1-.7h-.1c-.3.3-1 .8-2 .8-1.4 0-2.2-.9-2-2.3.2-2 2-3.8 4-3.8 1.3 0 2 .8 1.9 1.8h-.8c0-.6-.5-1.1-1.3-1.1-1.5 0-2.9 1.4-3 3-.1 1 .4 1.7 1.4 1.7.9 0 1.9-.5 2.2-1.4l.1-.4h-1.7l.1-.6h2.7zm5.3 2.3-.2.7h-3.8l1.9-5.9h.8l-1.6 5.2h2.9zm2.5.7h-.8l1.9-5.9h.8l-1.9 5.9zm8.1-3.6c-.2 2-1.7 3.6-3.9 3.6h-1.9l1.9-5.9h1.8c1.5 0 2.2.8 2.1 2.3zm-.8.1c.2-1.5-.9-1.6-1.5-1.6h-1l-1.4 4.5h1c1.5-.1 2.7-1.4 2.9-2.9zm5.9 2.9-.2.7H237l1.9-5.9h3.7l-.2.7h-3l-.6 1.9h2.6l-.2.7h-2.6l-.6 2h3.1zM69.3 46h8.4l4.6-27.6h-8.4zm38.6-27.6L97.5 38.5l-4.2-20.1h-8.6L90.8 46h10.9l15.2-27.6zm6.9 27.6h8.4l4.6-27.6h-8.4zm44.9-27.6h-8.4l-.8 4.8-1.9 11.5c-.1.9-.4 1.7-.7 2.4-.3.7-.7 1.3-1.2 1.8s-1.1.8-1.7 1.1c-.7.2-1.5.4-2.4.4-1 0-1.8-.1-2.4-.4-.6-.2-1.1-.6-1.4-1.1-.3-.5-.6-1.1-.6-1.8-.1-.7 0-1.5.1-2.4l1.9-11.5.8-4.8h-8.4l-.8 4.8-1.9 11.5c-.3 2-.3 3.7.1 5.2s1.1 2.8 2.1 3.8 2.4 1.8 4.1 2.3c1.7.5 3.7.8 6 .8s4.3-.2 6-.7a12 12 0 0 0 4.4-2.1c1.2-1 2.2-2.2 2.9-3.7.7-1.5 1.3-3.4 1.6-5.5l1.9-11.5.7-4.9zm33.5 0h-10.5L171 29.2l1.9-10.8h-8.4L159.8 46h8.4l1.8-10.6 8 10.6h10.2L178 32.3zm-142.8 0h-1.3C34.3 19.1 20.6 31.2 18 46h8.4c.1-.7.3-1.3.5-1.9 2.7-9.1 11.3-16.3 20.7-17.2.6-.1 1.2-.1 1.9-.1h8.9L55 46h8.4L68 18.4H50.4z" style="fill:#000"/>
</svg>