<?xml version="1.0" standalone="no"?>
<!DOCTYPE svg PUBLIC "-//W3C//DTD SVG 20010904//EN"
 "http://www.w3.org/TR/2001/REC-SVG-20010904/DTD/svg10.dtd">
<svg version="1.0" xmlns="http://www.w3.org/2000/svg"
 width="1024.000000pt" height="1024.000000pt" viewBox="0 0 1024.000000 1024.000000"
 preserveAspectRatio="xMidYMid meet">
<metadata>
Created by potrace 1.14, written by Peter Selinger 2001-2017
</metadata>
<g transform="translate(0.000000,1024.000000) scale(0.100000,-0.100000)"
fill="#000000" stroke="none">
<path d="M7320 9629 c-289 -40 -486 -86 -637 -149 -202 -84 -400 -217 -554
-370 l-75 -75 -152 51 c-267 90 -482 124 -784 124 -292 0 -500 -33 -770 -122
l-157 -51 -99 94 c-232 221 -510 370 -817 438 -101 22 -377 61 -434 61 -35 0
-39 -4 -151 -163 -125 -177 -220 -353 -263 -487 -127 -399 -93 -819 98 -1201
59 -119 65 -129 166 -264 l67 -90 -18 -70 c-10 -39 -25 -113 -34 -165 -113
-683 43 -1338 450 -1887 164 -221 344 -394 593 -570 3 -2 -10 -35 -29 -73
l-33 -69 -171 -61 c-242 -88 -419 -145 -507 -165 -85 -18 -101 -15 -178 44
-101 76 -324 366 -458 596 -199 339 -317 626 -362 881 -21 122 -29 129 -106
91 -101 -49 -288 -167 -402 -253 -631 -477 -1064 -1193 -1308 -2164 -168 -668
-225 -1563 -149 -2335 23 -233 74 -578 90 -602 17 -27 50 -30 64 -6 6 10 50
101 99 203 288 605 642 1089 944 1287 303 199 560 192 812 -23 41 -36 104
-100 141 -144 65 -79 90 -94 113 -66 7 8 32 76 56 152 155 476 473 888 792
1023 124 53 317 88 405 75 36 -6 37 -7 69 -103 38 -110 152 -340 223 -450 191
-296 469 -571 733 -728 291 -171 531 -212 783 -131 506 162 1035 721 1241
1310 33 94 35 96 68 102 62 10 231 -14 325 -45 114 -38 180 -73 287 -154 243
-182 470 -532 591 -913 43 -135 59 -160 96 -148 9 3 28 22 41 41 13 20 73 82
132 139 155 149 279 206 447 206 300 -1 634 -263 972 -765 91 -134 257 -430
351 -625 129 -270 121 -255 150 -258 14 -2 31 3 37 10 24 30 90 529 112 856
13 195 13 770 0 967 -45 679 -189 1335 -407 1855 -304 726 -741 1255 -1333
1612 -103 62 -176 98 -198 98 -30 0 -39 -19 -52 -105 -26 -182 -98 -391 -216
-627 -196 -391 -480 -783 -645 -889 l-48 -31 -76 16 c-97 20 -492 151 -667
221 -10 4 -34 37 -53 73 -28 52 -32 68 -21 74 50 28 260 204 347 290 609 606
855 1476 658 2320 l-20 87 55 69 c154 194 264 428 317 674 26 120 37 405 20
532 -35 262 -130 490 -312 746 -56 80 -111 155 -122 168 -22 24 -28 24 -127
11z m-3718 -2695 c173 -151 391 -252 612 -283 89 -13 246 -13 326 -1 69 10
112 -6 135 -50 21 -41 10 -91 -46 -208 -58 -121 -161 -223 -289 -285 -120 -59
-191 -77 -305 -77 -110 0 -185 18 -290 69 -103 51 -162 96 -224 173 -123 152
-175 325 -152 503 22 159 56 215 132 215 32 0 48 -9 101 -56z m3203 40 c71
-47 95 -320 41 -481 -86 -263 -327 -447 -602 -460 -270 -14 -513 126 -631 363
-93 187 -61 274 91 253 28 -4 99 -8 157 -8 270 -2 543 94 742 262 34 29 73 60
87 70 31 21 83 22 115 1z"/>
</g>
</svg>
