<svg xmlns="http://www.w3.org/2000/svg" viewBox="0 0 32 32"><path fill="none" d="M-1-1h582v402H-1z"/><g><path fill="none" stroke="#000" stroke-linecap="round" stroke-linejoin="round" stroke-width="2" d="M5 12V6h9M27 17v11h-4"/><path fill="#4e525d" stroke="#000" stroke-linecap="round" stroke-linejoin="round" stroke-width="2" d="M19.86 16.86h0l-.07.06a5.72 5.72 0 01-5.43 1.5h0v-4.7L12 15.28 9.64 13.7v4.72h0a5.72 5.72 0 01-5.43-1.5l-.07-.07h0A7.86 7.86 0 001 23.14h0a3.41 3.41 0 013.93 3.93h0a5.4 5.4 0 016.67 3l.4.93.4-.93a5.4 5.4 0 016.67-3h0A3.41 3.41 0 0123 23.14h0a7.86 7.86 0 00-3.14-6.28z"/><circle cx="25" cy="7" r="4" fill="#f23c50" stroke="#000" stroke-linecap="round" stroke-linejoin="round" stroke-width="2"/><path fill="none" stroke="#000" stroke-linecap="round" stroke-linejoin="round" stroke-width="2" d="M29 7h2M19 7h2M27.83 4.17l1.41-1.41M20.76 11.24l1.41-1.41M25 3V1M25 13v-2M22.17 4.17l-1.41-1.41M29.24 11.24l-1.41-1.41"/></g></svg>