{
  "accessors": [
    {
      "bufferView": 2,
      "componentType": 5126,
      "count": 3095,
      "max": [
        1.6553599834442139,
        1.1405600309371948,
        2.6730198860168457
      ],
      "min": [
        -1.6523000001907349,
        -0.94674700498580933,
        -0.0076569998636841774
      ],
      "type": "VEC3"
    },
    {
      "bufferView": 2,
      "byteOffset": 37140,
      "componentType": 5126,
      "count": 3095,
      "max": [
        0.99988502264022827,
        0.9998326301574707,
        0.99998050928115845
      ],
      "min": [
        -0.99988478422164917,
        -0.99999350309371948,
        -0.99995797872543335
      ],
      "type": "VEC3"
    },
    {
      "bufferView": 1,
      "componentType": 5126,
      "count": 3095,
      "max": [
        0.99365997314453125,
        0.99489301443099976
      ],
      "min": [
        0.00091499998234212399,
        0.0038119999226182699
      ],
      "type": "VEC2"
    },
    {
      "bufferView": 0,
      "componentType": 5125,
      "count": 8982,
      "max": [
        3094
      ],
      "min": [
        0
      ],
      "type": "SCALAR"
    }
  ],
  "asset": {
    "extras": {
      "author": "snootsy31 (https://sketchfab.com/snootsy31)",
      "license": "CC-BY-4.0 (http://creativecommons.org/licenses/by/4.0/)",
      "source": "https://sketchfab.com/3d-models/angry-birds-red-463a7584dea5464fa9ac3f18a8b09fa2",
      "title": "Angry Birds [Red]"
    },
    "generator": "Sketchfab-9.25.1",
    "version": "2.0"
  },
  "bufferViews": [
    {
      "buffer": 0,
      "byteLength": 35928,
      "byteOffset": 0,
      "name": "floatBufferViews",
      "target": 34963
    },
    {
      "buffer": 0,
      "byteLength": 24760,
      "byteOffset": 35928,
      "byteStride": 8,
      "name": "floatBufferViews",
      "target": 34962
    },
    {
      "buffer": 0,
      "byteLength": 74280,
      "byteOffset": 60688,
      "byteStride": 12,
      "name": "floatBufferViews",
      "target": 34962
    }
  ],
  "buffers": [
    {
      "byteLength": 134968,
      "uri": "scene.bin"
    }
  ],
  "images": [
    {
      "uri": "textures/acmat_0_baseColor.png"
    }
  ],
  "materials": [
    {
      "doubleSided": true,
      "emissiveFactor": [
        0,
        0,
        0
      ],
      "name": "acmat_0",
      "pbrMetallicRoughness": {
        "baseColorFactor": [
          1,
          1,
          1,
          1
        ],
        "baseColorTexture": {
          "index": 0,
          "texCoord": 0
        },
        "metallicFactor": 0,
        "roughnessFactor": 0.93272828679999997
      }
    }
  ],
  "meshes": [
    {
      "primitives": [
        {
          "attributes": {
            "NORMAL": 1,
            "POSITION": 0,
            "TEXCOORD_0": 2
          },
          "indices": 3,
          "material": 0,
          "mode": 4
        }
      ]
    }
  ],
  "nodes": [
    {
      "children": [
        1
      ],
      "name": "RootNode (gltf orientation matrix)",
      "rotation": [
        -0.70710678118654746,
        -0,
        -0,
        0.70710678118654757
      ]
    },
    {
      "children": [
        2
      ],
      "name": "RootNode (model correction matrix)"
    },
    {
      "children": [
        3
      ],
      "name": "AB_Red.obj.cleaner.materialmerger.gles"
    },
    {
      "mesh": 0,
      "name": ""
    }
  ],
  "samplers": [
    {
      "magFilter": 9729,
      "minFilter": 9987,
      "wrapS": 10497,
      "wrapT": 10497
    }
  ],
  "scene": 0,
  "scenes": [
    {
      "name": "OSG_Scene",
      "nodes": [
        0
      ]
    }
  ],
  "textures": [
    {
      "sampler": 0,
      "source": 0
    }
  ]
}

