<svg xmlns="http://www.w3.org/2000/svg" xmlns:xlink="http://www.w3.org/1999/xlink" version="1.1" x="0px" y="0px" viewBox="0 0 100 125" enable-background="new 0 0 100 100" xml:space="preserve"><g><path d="M90.129,88.626H70.792c0,0,15.829-16.607,16.355-17.283c1.927-2.465,1.768-7.104-0.24-9.996   c-2.338-3.916-7.416-9.338-15.354-14.192c-0.093-0.065-37.969-22.113-37.969-22.113c-0.087-0.051-0.149-0.065-0.229-0.105   c-0.133-0.068-0.441-0.197-0.459-0.202c-1.766-0.646-3.811-0.07-4.938,1.544c-1.341,1.924-0.869,4.571,1.055,5.911l23.993,16.723   c-1.201,1.261-2.696,3.604-2.696,6.396v20.726l-21.144,12.37c-0.2,0.116-0.347,0.23-0.47,0.342   c-1.764,1.363-2.299,3.843-1.142,5.819c0.838,1.432,2.343,2.229,3.89,2.229c0.772,0,1.556-0.199,2.271-0.618l23.373-13.674   c1.938-1.237,2.181-3.231,2.184-3.249l2.176-15.218c1.173,0.488,2.436,1.113,3.615,1.898c1.243,0.83,2.476,1.966,3.568,3.084   L56.172,88.771c-0.578,0.873-1.868,2.401-1.142,5.618c0.466,2.078,2.851,3.912,4.77,3.912h30.329c2.671,0,4.839-2.162,4.839-4.844   C94.968,90.79,92.8,88.626,90.129,88.626z"/><circle cx="39.758" cy="56.051" r="9.173"/></g><g><path d="M40.473,11.409c-0.008-0.133-0.012-0.268-0.012-0.403c0-5.445-4.429-9.874-9.872-9.874h-11.79   c-5.445,0-9.875,4.429-9.875,9.874v87.79H23.57v-87.79c0-1.927,0.781-3.672,2.043-4.942c0.131,0.143,0.261,0.287,0.397,0.431   c1.126,1.186,2.098,2.21,2.098,4.511c0,5.444,4.43,9.875,9.876,9.875h9.378v-0.006c0.04,0.001,0.079,0.006,0.119,0.006   c4.614,0,8.674-3.269,9.649-7.774l0.376-1.733L40.473,11.409z M20.714,11.006V95.94H11.78v-4.799h6.197v-2.939H11.78v-4.821h3.386   v-2.939H11.78v-4.822h6.197V72.68H11.78v-4.82h3.386V64.92H11.78v-4.822h6.197v-2.939H11.78v-4.82h3.386v-2.939H11.78v-4.823h6.197   v-2.94H11.78v-4.822h3.386v-2.939H11.78V29.05h6.197v-2.94H11.78v-4.821h3.386v-2.94H11.78v-4.823h6.197v-2.94h-6.154   c0.222-3.671,3.25-6.598,6.977-6.598h4.85C21.837,5.779,20.714,8.265,20.714,11.006z M37.984,18.025   c-3.871,0-7.021-3.149-7.021-7.019c0-3.44-1.666-5.195-2.882-6.477c-0.014-0.016-0.027-0.029-0.041-0.045   c0.792-0.311,1.648-0.496,2.548-0.496c3.869,0,7.017,3.148,7.017,7.018c0,2.744,1.127,5.228,2.94,7.019H37.984z M47.481,18.025   c-2.696,0-5.042-1.527-6.218-3.762l12.449-0.027C52.524,16.508,50.132,18.025,47.481,18.025z"/></g></svg>