<svg xmlns="http://www.w3.org/2000/svg" xml:space="preserve" viewBox="0 0 67.7 67.7">
  <path fill="#08abe8" d="M0 0h67.7v67.7H0z" paint-order="fill markers stroke" style="font-variation-settings:normal;-inkscape-stroke:none"/>
  <path fill="#4ec3ee" d="M1.9 0 0 1v.3L2.6 0h-.7zm16.5 0L9.6 4.4 0 9.4v1.2l7.3-3.8L20.6 0h-2.2zM26 0 11.2 8C7.8 10 3.6 12.5 0 14.4v.4c4.9-2.7 10.5-6 15-8.4L26.6 0H26zm8.6 0C29.2 3 26 4.6 20 7.8l-20 11V20l18-10L36.3 0h-1.8zm6 0L21.3 11.2 0 23.7v.3L24.8 9.4 41 0h-.4zM46 0 27.7 10.4 0 26.6v1l25.8-15L47.5 0H46zm3 0L27 13.2 0 29.7v.3a4576 4576 0 0 1 30.3-18.5L49.3 0H49zm12.4 0c-7.8 4.6-14.2 8.2-23.6 13.9L0 36.6v1L36 16 62.7 0h-1.3zm6.3 1.3L43.4 17.6 0 46.8v.4L46.1 16 67.7 1.5v-.2zm0 4.6-17 11A6032 6032 0 0 0 0 50.2v.9l49.1-32.4 18.6-12v-.8zm0 4.3-14 9.9C36.7 32 17.4 46 0 58.6v.3c17.5-12.7 37.9-27.4 56.2-40.3l11.5-8.2v-.2zm0 4-8 5.5L0 61.4v.8l58.3-40.8 9.4-6.5v-.7zm0 2-8 5.7A6289.6 6289.6 0 0 0 0 66.2v.3c17.3-13.1 41.3-31 62-46l5.7-4.2v-.2zm0 3.6-2.4 1.8-64 46.1h1C21.2 54.3 44.7 37.2 64 23.2l3.7-2.7v-.7zm0 3L66 24A5904.7 5904.7 0 0 0 9 67.7h.3L67.7 23v-.2zm0 2-56.9 43h.9l56-42.3V25zm0 2.2c-17 13.3-36.4 28.7-51.1 40.7h.4a3045 3045 0 0 1 50.7-40.5V27zm0 4.1L20.2 67.7h.9l46.6-36v-.6zm0 1.7c-14.7 12-30.4 24.8-42.4 35h.3A2763 2763 0 0 1 67.7 33v-.2zm0 3.5a4215.1 4215.1 0 0 1-39.5 31.4h.8c11.5-9 25.4-20.1 38.7-30.8v-.6zm0 2.2L33 67.7h.2l34.6-29v-.2zm0 1.7L34.1 67.7h.7l33-26.9v-.6zm0 4.2a2382 2382 0 0 0-26.3 23.3h.3l26-23v-.3zm0 3.5c-8.7 7.4-17 14.4-23.6 19.8h.6l23-19.2v-.6zm0 5.6L52.3 67.7h.2l15.2-14v-.2zm0 1.9-14 12.3h.5L67.7 56v-.5zm0 4.8-7.9 7.5h.2l7.7-7.3v-.2zm0 1.4c-2 1.8-5 4.7-6.7 6.1h.6l6.1-5.6v-.5zm0 3.8-2.3 2.3h.1l2.2-2v-.3zm0 .6L66 67.7h.4l1.4-1.3V66z" paint-order="stroke markers fill"/>
</svg>
