<svg xmlns="http://www.w3.org/2000/svg" xmlns:xlink="http://www.w3.org/1999/xlink" xml:space="preserve" viewBox="0 0 67.7 67.7">
  <defs>
    <linearGradient xlink:href="#a" id="b" x1="76.9" x2="90.2" y1="83.5" y2="101.1" gradientTransform="matrix(.38 0 0 .38 85.4 101.2)" gradientUnits="userSpaceOnUse"/>
    <linearGradient id="a">
      <stop offset="0" stop-color="#259f4a"/>
      <stop offset="1" stop-color="#124c25"/>
    </linearGradient>
    <linearGradient xlink:href="#a" id="d" x1="74.5" x2="83.8" y1="64.3" y2="75.8" gradientTransform="matrix(.38 0 0 .38 85.4 101.2)" gradientUnits="userSpaceOnUse"/>
    <linearGradient xlink:href="#a" id="c" x1="74.5" x2="83.8" y1="64.3" y2="75.8" gradientTransform="matrix(.38 0 0 .38 85.4 101.2)" gradientUnits="userSpaceOnUse"/>
  </defs>
  <path fill="#08abe8" d="M0 0h67.7v67.7H0z" paint-order="fill markers stroke" style="font-variation-settings:normal;-inkscape-stroke:none"/>
  <path fill="#4ec3ee" d="M1.9 0 0 1v.3L2.6 0h-.7zm16.5 0L9.6 4.4 0 9.4v1.2l7.3-3.8L20.6 0h-2.2zM26 0 11.2 8C7.8 10 3.6 12.5 0 14.4v.4c4.9-2.7 10.5-6 15-8.4L26.6 0H26zm8.6 0C29.2 3 26 4.6 20 7.8l-20 11V20l18-10L36.3 0h-1.8zm6 0L21.3 11.2 0 23.7v.3L24.8 9.4 41 0h-.4zM46 0 27.7 10.4 0 26.6v1l25.8-15L47.5 0H46zm3 0L27 13.2 0 29.7v.3a4576 4576 0 0 1 30.3-18.5L49.3 0H49zm12.4 0c-7.8 4.6-14.2 8.2-23.6 13.9L0 36.6v1L36 16 62.7 0h-1.3zm6.3 1.3L43.4 17.6 0 46.8v.4L46.1 16 67.7 1.5v-.2zm0 4.6-17 11A6032 6032 0 0 0 0 50.2v.9l49.1-32.4 18.6-12v-.8zm0 4.3-14 9.9C36.7 32 17.4 46 0 58.6v.3c17.5-12.7 37.9-27.4 56.2-40.3l11.5-8.2v-.2zm0 4-8 5.5L0 61.4v.8l58.3-40.8 9.4-6.5v-.7zm0 2-8 5.7A6289.6 6289.6 0 0 0 0 66.2v.3c17.3-13.1 41.3-31 62-46l5.7-4.2v-.2zm0 3.6-2.4 1.8-64 46.1h1C21.2 54.3 44.7 37.2 64 23.2l3.7-2.7v-.7zm0 3L66 24A5904.7 5904.7 0 0 0 9 67.7h.3L67.7 23v-.2zm0 2-56.9 43h.9l56-42.3V25zm0 2.2c-17 13.3-36.4 28.7-51.1 40.7h.4a3045 3045 0 0 1 50.7-40.5V27zm0 4.1L20.2 67.7h.9l46.6-36v-.6zm0 1.7c-14.7 12-30.4 24.8-42.4 35h.3A2763 2763 0 0 1 67.7 33v-.2zm0 3.5a4215.1 4215.1 0 0 1-39.5 31.4h.8c11.5-9 25.4-20.1 38.7-30.8v-.6zm0 2.2L33 67.7h.2l34.6-29v-.2zm0 1.7L34.1 67.7h.7l33-26.9v-.6zm0 4.2a2382 2382 0 0 0-26.3 23.3h.3l26-23v-.3zm0 3.5c-8.7 7.4-17 14.4-23.6 19.8h.6l23-19.2v-.6zm0 5.6L52.3 67.7h.2l15.2-14v-.2zm0 1.9-14 12.3h.5L67.7 56v-.5zm0 4.8-7.9 7.5h.2l7.7-7.3v-.2zm0 1.4c-2 1.8-5 4.7-6.7 6.1h.6l6.1-5.6v-.5zm0 3.8-2.3 2.3h.1l2.2-2v-.3zm0 .6L66 67.7h.4l1.4-1.3V66z" paint-order="stroke markers fill"/>
  <path fill="none" d="M7 17.2v38.2h47.4V16.7H7v.5z" paint-order="fill markers stroke" style="font-variation-settings:normal;-inkscape-stroke:none"/>
  <g stroke-width="1.1" paint-order="stroke markers fill">
    <path fill-opacity=".6" d="m200.8 108.3-8.6 2.4a127.2 127.2 164.4 0 0-1 .3h-.3a4465.1 4465.1 164.4 0 0-2.8.8l-5 1.4a8823.6 8823.6 164.4 0 1-1.9.5l-22.6 6.3a2.8 2.8 144.6 0 0-1.5 1.1l-2.8 4a.7.7 70.6 0 0 .4 1.2l16.5 4.8a3.6 3.6 32 0 1 1.6 1l7.6 8.5a.8.8 175.5 0 0 1.3-.1l1-1.7a.9.9 171 0 1 1.4-.2l8.6 7a1.4 1.4 2.7 0 0 1.6.1l5.2-3.5a2 2 119.3 0 0 .9-1.5l.1-3a3929.4 3929.4 92.4 0 1 .1-2v-.1a3305.6 3305.6 92.4 0 0 .1-2l.5-12.7a2094.4 2094.4 92.4 0 1 .1-2 1689.6 1689.6 92.4 0 0 0-1.6l.4-8.3a.7.7 38.4 0 0-.9-.7z" style="font-variation-settings:normal;-inkscape-stroke:none" transform="matrix(1.39 0 0 1.5 -213.3 -156)"/>
    <path fill="#5e5e5e" d="m172.7 130.4 8.3 9.1 19.6-30z" style="font-variation-settings:normal;-inkscape-stroke:none" transform="matrix(1.39 0 0 1.5 -213.3 -156)"/>
    <path fill="url(#b)" d="m180.3 134.2.7 5.3 19.6-30z" style="font-variation-settings:normal;-inkscape-stroke:none" transform="matrix(1.39 0 0 1.5 -213.3 -156)"/>
    <path fill="#d8d8d8" d="m155.5 125.4 2.8-4.2 42.3-11.8-27.9 21z" style="font-variation-settings:normal;-inkscape-stroke:none" transform="matrix(1.39 0 0 1.5 -213.3 -156)"/>
    <path fill="#2fcc5e" d="m158.3 121.2 20 4.3 22.3-16z" style="font-variation-settings:normal;-inkscape-stroke:none" transform="matrix(1.39 0 0 1.5 -213.3 -156)"/>
    <path fill="#d8d8d8" d="m180.3 134.2 13.3 10.7 5.7-3.8 1.3-31.7z" style="font-variation-settings:normal" transform="matrix(1.39 0 0 1.5 -213.3 -156)"/>
    <path fill="url(#c)" d="m178.3 125.5 4 6.3 18.3-22.4z" style="font-variation-settings:normal;-inkscape-stroke:none" transform="matrix(1.39 0 0 1.5 -213.3 -156)"/>
    <path fill="url(#d)" d="m183.4 127.8.2 2.4 17-20.8z" style="font-variation-settings:normal;-inkscape-stroke:none" transform="matrix(1.39 0 0 1.5 -213.3 -156)"/>
    <path fill="#8d7363" d="m200.2 119.8-.9 21.3-16-13.3 7.5-7.9z" style="font-variation-settings:normal;-inkscape-stroke:none" transform="matrix(1.39 0 0 1.5 -213.3 -156)"/>
    <path fill="#2799df" d="m182.5 114.5 2.7 6 6.2-4.4-2-3.5z" style="font-variation-settings:normal;-inkscape-stroke:none" transform="matrix(1.39 0 0 1.5 -213.3 -156)"/>
    <path fill="#e4b119" d="m189.4 112.6 2.1-.6 1.7 2.8-1.8 1.3z" style="font-variation-settings:normal;-inkscape-stroke:none" transform="matrix(1.39 0 0 1.5 -213.3 -156)"/>
    <path fill="#8d7363" d="m191.5 112 1.7 2.8 7.4-5.4z" style="font-variation-settings:normal;-inkscape-stroke:none" transform="matrix(1.39 0 0 1.5 -213.3 -156)"/>
    <path fill="#1b70a4" d="m185.2 120.5-3.1 11 .2.3 1.3-1.6-.2-2.4 6.8-7.2 1.2-4.5z" style="font-variation-settings:normal;-inkscape-stroke:none" transform="matrix(1.39 0 0 1.5 -213.3 -156)"/>
    <path fill="#a88212" d="m191.4 116.1 1.8-1.3-1 3.6-2 2.2z" style="font-variation-settings:normal;-inkscape-stroke:none" transform="matrix(1.39 0 0 1.5 -213.3 -156)"/>
    <path fill="#53443a" d="m193.2 114.8 7.4-5.4-8.4 9z" style="font-variation-settings:normal;-inkscape-stroke:none" transform="matrix(1.39 0 0 1.5 -213.3 -156)"/>
    <path fill="#e4b119" d="m200.3 118.2-8 .2-1.5 1.5h9.4zm-8.8 16.4h8v2H194z" style="font-variation-settings:normal;-inkscape-stroke:none" transform="matrix(1.39 0 0 1.5 -213.3 -156)"/>
    <path fill="#2fcc5e" d="M194 136.7h5.5l-.2 4.4z" style="font-variation-settings:normal;-inkscape-stroke:none" transform="matrix(1.39 0 0 1.5 -213.3 -156)"/>
    <path fill-opacity=".6" d="m158.3 121.2 20 4.3 4 6.3-.2.2-3.8-5.8zm25.3 9-.2-2.4 15.9 13.3-15-11.9z" style="font-variation-settings:normal;-inkscape-stroke:none" transform="matrix(1.39 0 0 1.5 -213.3 -156)"/>
    <path fill="#2fcc5e" d="m200.3 118.2.3-8.8-8.4 9z" style="font-variation-settings:normal;-inkscape-stroke:none" transform="matrix(1.39 0 0 1.5 -213.3 -156)"/>
  </g>
</svg>
